<svg id="svg" version="1.1" xmlns="http://www.w3.org/2000/svg" xmlns:xlink="http://www.w3.org/1999/xlink" width="400" height="29.791099000908265" viewBox="0, 0, 400,29.791099000908265"><g id="svgg"><path id="path0" d="M22.333 0.250 C 22.333 0.388,22.408 0.500,22.500 0.500 C 22.592 0.500,22.667 0.388,22.667 0.250 C 22.667 0.112,22.592 0.000,22.500 0.000 C 22.408 0.000,22.333 0.112,22.333 0.250 M35.000 14.833 C 35.000 27.907,35.030 29.667,35.250 29.667 C 35.470 29.667,35.500 27.907,35.500 14.833 C 35.500 1.759,35.470 0.000,35.250 0.000 C 35.030 0.000,35.000 1.759,35.000 14.833 M40.014 0.347 C 40.205 0.538,40.403 0.653,40.454 0.601 C 40.592 0.463,40.162 0.000,39.896 0.000 C 39.739 0.000,39.776 0.109,40.014 0.347 M201.083 1.914 C 201.083 3.729,201.168 4.172,201.399 3.570 C 201.588 3.075,201.507 0.573,201.292 0.279 C 201.121 0.045,201.083 0.337,201.083 1.914 M262.500 14.830 L 262.500 29.686 269.861 29.635 C 275.565 29.595,277.238 29.536,277.292 29.375 C 277.330 29.260,277.542 29.167,277.764 29.167 C 277.985 29.167,278.167 29.092,278.167 29.000 C 278.167 28.908,278.317 28.833,278.500 28.833 C 278.685 28.833,278.833 28.722,278.833 28.583 C 278.833 28.444,278.981 28.333,279.167 28.333 C 279.350 28.333,279.500 28.258,279.500 28.167 C 279.500 28.075,279.577 28.000,279.671 28.000 C 279.857 28.000,281.333 26.578,281.333 26.399 C 281.333 26.339,281.467 26.168,281.629 26.020 C 282.116 25.576,282.500 24.872,282.500 24.423 C 282.500 24.190,282.575 24.000,282.667 24.000 C 282.758 24.000,282.833 23.587,282.833 23.083 C 282.833 22.579,282.908 22.167,283.000 22.167 C 283.099 22.167,283.167 21.559,283.167 20.677 C 283.167 19.857,283.092 19.140,283.000 19.083 C 282.908 19.027,282.833 18.647,282.833 18.240 C 282.833 17.833,282.758 17.500,282.667 17.500 C 282.575 17.500,282.500 17.350,282.500 17.167 C 282.500 16.983,282.425 16.833,282.333 16.833 C 282.242 16.833,282.167 16.683,282.167 16.500 C 282.167 16.315,282.056 16.167,281.917 16.167 C 281.778 16.167,281.667 16.019,281.667 15.833 C 281.667 15.650,281.592 15.500,281.500 15.500 C 281.408 15.500,281.333 15.416,281.333 15.314 C 281.333 15.048,280.151 14.001,279.842 13.994 C 279.647 13.990,279.676 13.912,279.958 13.676 C 280.165 13.504,280.333 13.261,280.333 13.135 C 280.333 13.010,280.483 12.799,280.667 12.667 C 280.850 12.535,281.000 12.293,281.000 12.130 C 281.000 11.967,281.075 11.833,281.167 11.833 C 281.258 11.833,281.333 11.646,281.333 11.417 C 281.333 11.188,281.408 11.000,281.500 11.000 C 281.592 11.000,281.667 10.783,281.667 10.518 C 281.667 10.243,281.774 9.994,281.917 9.940 C 282.118 9.862,282.167 9.485,282.167 8.000 C 282.167 6.515,282.118 6.138,281.917 6.060 C 281.762 6.001,281.667 5.748,281.667 5.399 C 281.667 5.088,281.592 4.833,281.500 4.833 C 281.408 4.833,281.333 4.683,281.333 4.500 C 281.333 4.317,281.258 4.167,281.167 4.167 C 281.075 4.167,281.000 4.055,281.000 3.919 C 281.000 3.653,280.612 3.119,280.103 2.685 C 279.930 2.537,279.539 2.173,279.234 1.875 C 278.928 1.577,278.571 1.333,278.440 1.333 C 278.309 1.333,278.159 1.221,278.106 1.083 C 278.054 0.946,277.858 0.833,277.672 0.833 C 277.486 0.833,277.333 0.758,277.333 0.667 C 277.333 0.575,277.198 0.500,277.033 0.500 C 276.868 0.500,276.640 0.406,276.525 0.292 C 276.367 0.134,274.653 0.070,269.408 0.029 L 262.500 -0.026 262.500 14.830 M305.333 0.250 C 305.333 0.388,305.258 0.500,305.167 0.500 C 305.075 0.500,305.000 0.688,305.000 0.917 C 305.000 1.146,304.925 1.333,304.833 1.333 C 304.742 1.333,304.667 1.558,304.667 1.833 C 304.667 2.108,304.592 2.333,304.500 2.333 C 304.408 2.333,304.333 2.513,304.333 2.732 C 304.333 2.952,304.221 3.174,304.083 3.227 C 303.946 3.280,303.833 3.513,303.833 3.745 C 303.833 3.977,303.758 4.167,303.667 4.167 C 303.575 4.167,303.500 4.312,303.500 4.490 C 303.500 4.668,303.440 4.851,303.366 4.896 C 303.293 4.942,303.129 5.359,303.003 5.823 C 302.876 6.287,302.712 6.667,302.637 6.667 C 302.561 6.667,302.500 6.854,302.500 7.083 C 302.500 7.313,302.425 7.500,302.333 7.500 C 302.242 7.500,302.167 7.725,302.167 8.000 C 302.167 8.333,302.083 8.500,301.917 8.500 C 301.779 8.500,301.667 8.646,301.667 8.823 C 301.667 9.001,301.592 9.193,301.500 9.250 C 301.408 9.307,301.333 9.574,301.333 9.843 C 301.333 10.113,301.258 10.333,301.167 10.333 C 301.075 10.333,301.000 10.483,301.000 10.667 C 301.000 10.850,300.925 11.000,300.833 11.000 C 300.742 11.000,300.667 11.262,300.667 11.583 C 300.667 11.904,300.592 12.167,300.500 12.167 C 300.408 12.167,300.333 12.285,300.333 12.429 C 300.333 12.573,300.230 12.793,300.104 12.919 C 299.979 13.045,299.775 13.490,299.651 13.907 C 299.528 14.325,299.369 14.667,299.297 14.667 C 299.225 14.667,299.167 14.812,299.167 14.990 C 299.167 15.168,299.092 15.360,299.000 15.417 C 298.908 15.473,298.833 15.740,298.833 16.010 C 298.833 16.279,298.758 16.500,298.667 16.500 C 298.575 16.500,298.500 16.646,298.500 16.823 C 298.500 17.001,298.425 17.193,298.333 17.250 C 298.242 17.307,298.167 17.574,298.167 17.843 C 298.167 18.168,298.082 18.333,297.917 18.333 C 297.750 18.333,297.667 18.500,297.667 18.833 C 297.667 19.108,297.592 19.333,297.500 19.333 C 297.408 19.333,297.333 19.521,297.333 19.750 C 297.333 19.979,297.258 20.167,297.167 20.167 C 297.075 20.167,297.000 20.350,297.000 20.573 C 297.000 20.797,296.925 21.027,296.833 21.083 C 296.742 21.140,296.667 21.332,296.667 21.510 C 296.667 21.688,296.592 21.833,296.500 21.833 C 296.408 21.833,296.333 22.021,296.333 22.250 C 296.333 22.479,296.264 22.667,296.180 22.667 C 296.096 22.667,295.977 22.892,295.917 23.167 C 295.856 23.442,295.738 23.667,295.653 23.667 C 295.569 23.667,295.500 23.854,295.500 24.083 C 295.500 24.313,295.425 24.500,295.333 24.500 C 295.242 24.500,295.167 24.725,295.167 25.000 C 295.167 25.275,295.092 25.500,295.000 25.500 C 294.908 25.500,294.833 25.646,294.833 25.823 C 294.833 26.001,294.758 26.193,294.667 26.250 C 294.575 26.307,294.500 26.574,294.500 26.843 C 294.500 27.113,294.425 27.333,294.333 27.333 C 294.242 27.333,294.167 27.475,294.167 27.649 C 294.167 27.822,294.054 28.008,293.917 28.060 C 293.779 28.113,293.667 28.304,293.667 28.485 C 293.667 28.666,293.592 28.860,293.500 28.917 C 293.408 28.973,293.333 29.165,293.333 29.343 C 293.333 29.649,293.471 29.667,295.917 29.667 L 298.500 29.667 298.500 29.260 C 298.500 29.036,298.575 28.807,298.667 28.750 C 298.758 28.693,298.833 28.501,298.833 28.323 C 298.833 28.146,298.908 28.000,299.000 28.000 C 299.092 28.000,299.167 27.775,299.167 27.500 C 299.167 27.225,299.242 27.000,299.333 27.000 C 299.425 27.000,299.500 26.817,299.500 26.593 C 299.500 26.369,299.575 26.140,299.667 26.083 C 299.758 26.027,299.833 25.805,299.833 25.591 C 299.833 25.377,299.946 25.159,300.083 25.106 C 300.221 25.054,300.333 24.815,300.333 24.577 C 300.333 23.654,300.229 23.667,307.655 23.667 C 314.320 23.667,314.500 23.675,314.500 23.990 C 314.500 24.168,314.575 24.360,314.667 24.417 C 314.758 24.473,314.833 24.740,314.833 25.010 C 314.833 25.279,314.908 25.500,315.000 25.500 C 315.092 25.500,315.167 25.650,315.167 25.833 C 315.167 26.017,315.242 26.167,315.333 26.167 C 315.425 26.167,315.500 26.387,315.500 26.657 C 315.500 26.926,315.575 27.193,315.667 27.250 C 315.758 27.307,315.833 27.499,315.833 27.677 C 315.833 27.854,315.946 28.000,316.083 28.000 C 316.237 28.000,316.333 28.156,316.333 28.407 C 316.333 28.631,316.408 28.860,316.500 28.917 C 316.592 28.973,316.667 29.165,316.667 29.343 C 316.667 29.649,316.803 29.667,319.167 29.667 L 321.667 29.667 321.667 29.250 C 321.667 29.021,321.592 28.833,321.500 28.833 C 321.408 28.833,321.333 28.646,321.333 28.417 C 321.333 28.188,321.258 28.000,321.167 28.000 C 321.075 28.000,321.000 27.775,321.000 27.500 C 321.000 27.225,320.925 27.000,320.833 27.000 C 320.742 27.000,320.667 26.854,320.667 26.677 C 320.667 26.499,320.592 26.307,320.500 26.250 C 320.408 26.193,320.333 26.007,320.333 25.835 C 320.333 25.664,320.221 25.411,320.083 25.274 C 319.946 25.136,319.833 24.906,319.833 24.762 C 319.833 24.618,319.758 24.500,319.667 24.500 C 319.575 24.500,319.500 24.238,319.500 23.917 C 319.500 23.596,319.425 23.333,319.333 23.333 C 319.242 23.333,319.167 23.183,319.167 23.000 C 319.167 22.817,319.092 22.667,319.000 22.667 C 318.908 22.667,318.833 22.479,318.833 22.250 C 318.833 22.021,318.758 21.833,318.667 21.833 C 318.575 21.833,318.500 21.643,318.500 21.411 C 318.500 21.179,318.387 20.946,318.250 20.894 C 318.112 20.841,318.000 20.660,318.000 20.492 C 318.000 20.324,317.925 20.140,317.833 20.083 C 317.742 20.027,317.667 19.760,317.667 19.490 C 317.667 19.221,317.592 19.000,317.500 19.000 C 317.408 19.000,317.333 18.850,317.333 18.667 C 317.333 18.483,317.258 18.333,317.167 18.333 C 317.075 18.333,317.000 18.146,317.000 17.917 C 317.000 17.688,316.925 17.500,316.833 17.500 C 316.742 17.500,316.667 17.275,316.667 17.000 C 316.667 16.725,316.592 16.500,316.500 16.500 C 316.408 16.500,316.333 16.348,316.333 16.161 C 316.333 15.975,316.221 15.780,316.083 15.727 C 315.941 15.672,315.833 15.424,315.833 15.149 C 315.833 14.884,315.758 14.667,315.667 14.667 C 315.575 14.667,315.500 14.517,315.500 14.333 C 315.500 14.150,315.425 14.000,315.333 14.000 C 315.242 14.000,315.167 13.737,315.167 13.417 C 315.167 13.096,315.092 12.833,315.000 12.833 C 314.908 12.833,314.833 12.683,314.833 12.500 C 314.833 12.317,314.758 12.167,314.667 12.167 C 314.575 12.167,314.500 11.939,314.500 11.661 C 314.500 11.366,314.396 11.116,314.250 11.060 C 314.112 11.008,314.000 10.789,314.000 10.575 C 314.000 10.361,313.925 10.140,313.833 10.083 C 313.742 10.027,313.667 9.797,313.667 9.573 C 313.667 9.350,313.592 9.167,313.500 9.167 C 313.408 9.167,313.333 9.017,313.333 8.833 C 313.333 8.650,313.258 8.500,313.167 8.500 C 313.075 8.500,313.000 8.275,313.000 8.000 C 313.000 7.725,312.925 7.500,312.833 7.500 C 312.742 7.500,312.667 7.313,312.667 7.083 C 312.667 6.854,312.592 6.667,312.500 6.667 C 312.408 6.667,312.333 6.522,312.333 6.345 C 312.333 6.168,312.221 5.911,312.083 5.774 C 311.946 5.636,311.833 5.368,311.833 5.179 C 311.833 4.989,311.758 4.833,311.667 4.833 C 311.575 4.833,311.500 4.688,311.500 4.510 C 311.500 4.332,311.425 4.140,311.333 4.083 C 311.242 4.027,311.167 3.802,311.167 3.583 C 311.167 3.365,311.092 3.140,311.000 3.083 C 310.908 3.027,310.833 2.802,310.833 2.583 C 310.833 2.365,310.758 2.140,310.667 2.083 C 310.575 2.027,310.500 1.835,310.500 1.657 C 310.500 1.479,310.387 1.333,310.250 1.333 C 310.094 1.333,310.000 1.176,310.000 0.917 C 310.000 0.688,309.925 0.500,309.833 0.500 C 309.742 0.500,309.667 0.388,309.667 0.250 C 309.667 0.041,309.315 0.000,307.500 0.000 C 305.685 0.000,305.333 0.041,305.333 0.250 M333.667 14.833 L 333.667 29.667 335.833 29.667 L 338.000 29.667 338.000 18.742 L 338.000 7.818 338.375 8.201 C 338.581 8.411,338.856 8.788,338.985 9.039 C 339.114 9.289,339.358 9.643,339.527 9.824 C 339.695 10.005,339.833 10.236,339.833 10.338 C 339.833 10.575,340.254 11.000,340.488 11.000 C 340.586 11.000,340.667 11.136,340.667 11.302 C 340.667 11.468,340.817 11.765,341.000 11.962 C 341.183 12.158,341.333 12.418,341.333 12.540 C 341.333 12.661,341.483 12.868,341.667 13.000 C 341.850 13.132,342.000 13.340,342.000 13.461 C 342.000 13.583,342.188 13.856,342.417 14.069 C 342.646 14.281,342.833 14.561,342.833 14.691 C 342.833 14.820,342.983 15.035,343.167 15.167 C 343.350 15.299,343.500 15.526,343.500 15.672 C 343.500 15.818,343.650 16.098,343.833 16.295 C 344.017 16.492,344.167 16.720,344.167 16.803 C 344.167 16.886,344.354 17.094,344.583 17.266 C 344.813 17.438,345.000 17.697,345.000 17.841 C 345.000 17.986,345.150 18.265,345.333 18.462 C 345.517 18.658,345.667 18.901,345.667 19.001 C 345.667 19.100,345.854 19.369,346.083 19.598 C 346.313 19.828,346.500 20.108,346.500 20.221 C 346.500 20.334,346.650 20.535,346.833 20.667 C 347.017 20.799,347.167 21.024,347.167 21.167 C 347.167 21.310,347.317 21.535,347.500 21.667 C 347.683 21.799,347.833 22.035,347.833 22.191 C 347.833 22.348,348.021 22.623,348.250 22.804 C 348.479 22.984,348.667 23.235,348.667 23.362 C 348.667 23.489,348.817 23.701,349.000 23.833 C 349.183 23.965,349.333 24.193,349.333 24.339 C 349.333 24.485,349.483 24.765,349.667 24.962 C 349.850 25.158,350.000 25.422,350.000 25.548 C 350.000 25.674,350.188 25.877,350.417 26.000 C 350.659 26.130,350.833 26.370,350.833 26.575 C 350.833 26.768,350.983 27.035,351.167 27.167 C 351.350 27.299,351.500 27.524,351.500 27.667 C 351.500 27.810,351.650 28.035,351.833 28.167 C 352.017 28.299,352.167 28.519,352.167 28.656 C 352.167 29.440,352.920 29.667,355.526 29.667 L 358.000 29.667 358.000 14.833 L 358.000 0.000 355.667 0.000 L 353.333 0.000 353.333 10.917 C 353.333 18.083,353.276 21.833,353.167 21.833 C 353.075 21.833,353.000 21.715,353.000 21.571 C 353.000 21.272,352.611 20.833,352.345 20.833 C 352.247 20.833,352.167 20.683,352.167 20.500 C 352.167 20.317,352.092 20.167,352.000 20.167 C 351.908 20.167,351.833 20.054,351.833 19.917 C 351.833 19.779,351.758 19.667,351.667 19.667 C 351.575 19.667,351.500 19.533,351.500 19.370 C 351.500 19.207,351.350 18.965,351.167 18.833 C 350.983 18.701,350.833 18.494,350.833 18.372 C 350.833 18.250,350.646 17.977,350.417 17.765 C 350.188 17.552,350.000 17.272,350.000 17.143 C 350.000 17.013,349.850 16.799,349.667 16.667 C 349.483 16.535,349.333 16.307,349.333 16.161 C 349.333 16.015,349.183 15.735,349.000 15.538 C 348.817 15.342,348.667 15.113,348.667 15.030 C 348.667 14.948,348.479 14.739,348.250 14.567 C 348.021 14.395,347.833 14.101,347.833 13.914 C 347.833 13.727,347.683 13.465,347.500 13.333 C 347.317 13.201,347.167 12.992,347.167 12.868 C 347.167 12.599,346.763 12.167,346.512 12.167 C 346.414 12.167,346.333 12.031,346.333 11.865 C 346.333 11.699,346.183 11.402,346.000 11.205 C 345.817 11.008,345.667 10.748,345.667 10.627 C 345.667 10.506,345.517 10.299,345.333 10.167 C 345.150 10.035,345.000 9.798,345.000 9.642 C 345.000 9.486,344.813 9.210,344.583 9.030 C 344.354 8.850,344.167 8.598,344.167 8.471 C 344.167 8.344,344.017 8.132,343.833 8.000 C 343.650 7.868,343.500 7.640,343.500 7.495 C 343.500 7.349,343.350 7.069,343.167 6.872 C 342.983 6.675,342.833 6.446,342.833 6.364 C 342.833 6.281,342.646 6.073,342.417 5.900 C 342.188 5.728,342.000 5.434,342.000 5.247 C 342.000 5.060,341.850 4.799,341.667 4.667 C 341.483 4.535,341.333 4.327,341.333 4.206 C 341.333 4.084,341.146 3.797,340.917 3.568 C 340.688 3.339,340.500 3.059,340.500 2.946 C 340.500 2.833,340.350 2.632,340.167 2.500 C 339.983 2.368,339.833 2.154,339.833 2.024 C 339.833 1.895,339.702 1.668,339.541 1.520 C 339.379 1.371,339.136 1.025,338.999 0.750 C 338.631 0.010,338.613 0.005,336.042 0.003 L 333.667 0.000 333.667 14.833 M382.458 0.111 C 382.023 0.152,381.667 0.256,381.667 0.342 C 381.667 0.429,381.446 0.500,381.177 0.500 C 380.907 0.500,380.640 0.575,380.583 0.667 C 380.527 0.758,380.340 0.833,380.169 0.833 C 379.997 0.833,379.745 0.946,379.607 1.083 C 379.470 1.221,379.239 1.333,379.095 1.333 C 378.951 1.333,378.833 1.408,378.833 1.500 C 378.833 1.592,378.721 1.667,378.583 1.667 C 378.446 1.667,378.333 1.742,378.333 1.833 C 378.333 1.925,378.183 2.000,378.000 2.000 C 377.817 2.000,377.667 2.062,377.667 2.139 C 377.667 2.215,377.460 2.382,377.208 2.510 C 376.626 2.806,374.000 5.427,374.000 5.712 C 374.000 5.830,373.850 6.035,373.667 6.167 C 373.483 6.299,373.333 6.540,373.333 6.703 C 373.333 6.867,373.258 7.000,373.167 7.000 C 373.075 7.000,373.000 7.112,373.000 7.250 C 373.000 7.388,372.944 7.500,372.875 7.501 C 372.687 7.503,372.167 8.483,372.167 8.837 C 372.167 9.007,372.092 9.193,372.000 9.250 C 371.908 9.307,371.833 9.574,371.833 9.843 C 371.833 10.113,371.758 10.333,371.667 10.333 C 371.575 10.333,371.500 10.671,371.500 11.083 C 371.500 11.496,371.425 11.833,371.333 11.833 C 371.228 11.833,371.167 12.944,371.167 14.833 C 371.167 16.722,371.228 17.833,371.333 17.833 C 371.425 17.833,371.500 18.166,371.500 18.573 C 371.500 18.981,371.575 19.360,371.667 19.417 C 371.758 19.473,371.833 19.773,371.833 20.083 C 371.833 20.393,371.908 20.693,372.000 20.750 C 372.092 20.807,372.167 20.999,372.167 21.177 C 372.167 21.354,372.242 21.500,372.333 21.500 C 372.425 21.500,372.500 21.603,372.500 21.730 C 372.500 21.856,372.613 22.053,372.750 22.167 C 372.887 22.281,373.000 22.498,373.000 22.650 C 373.000 22.802,373.150 23.035,373.333 23.167 C 373.517 23.299,373.667 23.540,373.667 23.703 C 373.667 23.867,373.729 24.000,373.805 24.000 C 373.881 24.000,374.044 24.188,374.167 24.417 C 374.289 24.646,374.457 24.833,374.538 24.833 C 374.620 24.833,375.233 25.396,375.901 26.083 C 376.568 26.771,377.222 27.333,377.354 27.333 C 377.485 27.333,377.701 27.483,377.833 27.667 C 377.965 27.850,378.245 28.000,378.453 28.000 C 378.662 28.000,378.833 28.075,378.833 28.167 C 378.833 28.258,378.983 28.333,379.167 28.333 C 379.352 28.333,379.500 28.444,379.500 28.583 C 379.500 28.721,379.646 28.833,379.823 28.833 C 380.001 28.833,380.193 28.908,380.250 29.000 C 380.307 29.092,380.567 29.167,380.829 29.167 C 381.091 29.167,381.337 29.260,381.375 29.375 C 381.475 29.676,389.558 29.676,389.858 29.375 C 389.973 29.260,390.202 29.167,390.367 29.167 C 390.532 29.167,390.667 29.092,390.667 29.000 C 390.667 28.908,390.894 28.833,391.172 28.833 C 391.467 28.833,391.717 28.729,391.773 28.583 C 391.826 28.446,391.994 28.333,392.148 28.333 C 392.301 28.333,392.535 28.183,392.667 28.000 C 392.799 27.817,393.061 27.667,393.250 27.667 C 393.439 27.667,393.701 27.517,393.833 27.333 C 393.965 27.150,394.174 27.000,394.297 27.000 C 394.653 27.000,396.833 24.708,396.833 24.334 C 396.833 24.151,396.918 24.000,397.022 24.000 C 397.262 24.000,398.000 23.151,398.000 22.875 C 398.000 22.760,398.075 22.667,398.167 22.667 C 398.258 22.667,398.333 22.479,398.333 22.250 C 398.333 22.021,398.408 21.833,398.500 21.833 C 398.592 21.833,398.667 21.691,398.667 21.518 C 398.667 21.344,398.779 21.159,398.917 21.106 C 399.063 21.050,399.167 20.801,399.167 20.505 C 399.167 20.227,399.242 20.000,399.333 20.000 C 399.425 20.000,399.500 19.781,399.500 19.514 C 399.500 19.247,399.581 19.001,399.679 18.968 C 399.961 18.874,400.108 13.747,399.838 13.422 C 399.564 13.092,388.970 13.035,388.258 13.360 C 387.835 13.553,387.833 13.562,387.833 15.693 L 387.833 17.833 391.500 17.833 L 395.167 17.833 395.167 18.250 C 395.167 18.479,395.097 18.667,395.012 18.667 C 394.834 18.667,394.333 19.608,394.333 19.942 C 394.333 20.066,394.258 20.167,394.167 20.167 C 394.075 20.167,394.000 20.300,394.000 20.463 C 394.000 20.626,393.850 20.868,393.667 21.000 C 393.483 21.132,393.333 21.374,393.333 21.537 C 393.333 21.700,393.258 21.833,393.167 21.833 C 393.075 21.833,393.000 21.946,393.000 22.083 C 393.000 22.221,392.918 22.333,392.817 22.333 C 392.716 22.333,392.424 22.558,392.167 22.833 C 391.910 23.108,391.580 23.333,391.433 23.333 C 391.287 23.333,391.167 23.400,391.167 23.481 C 391.167 23.562,390.904 23.753,390.583 23.905 C 390.262 24.058,390.000 24.254,390.000 24.341 C 390.000 24.429,389.850 24.500,389.667 24.500 C 389.483 24.500,389.333 24.575,389.333 24.667 C 389.333 24.758,389.146 24.833,388.917 24.833 C 388.688 24.833,388.500 24.908,388.500 25.000 C 388.500 25.092,388.125 25.167,387.667 25.167 C 387.208 25.167,386.833 25.242,386.833 25.333 C 386.833 25.429,386.333 25.500,385.667 25.500 C 385.000 25.500,384.500 25.429,384.500 25.333 C 384.500 25.242,384.087 25.167,383.583 25.167 C 383.079 25.167,382.667 25.092,382.667 25.000 C 382.667 24.908,382.442 24.833,382.167 24.833 C 381.892 24.833,381.667 24.758,381.667 24.667 C 381.667 24.575,381.551 24.500,381.409 24.500 C 381.267 24.500,380.977 24.313,380.765 24.083 C 380.552 23.854,380.286 23.667,380.173 23.667 C 380.060 23.667,379.757 23.442,379.500 23.167 C 379.243 22.892,378.983 22.667,378.921 22.667 C 378.761 22.667,378.333 22.217,378.333 22.049 C 378.333 21.971,378.183 21.799,378.000 21.667 C 377.817 21.535,377.667 21.345,377.667 21.245 C 377.667 21.145,377.526 20.912,377.354 20.727 C 377.182 20.542,376.989 20.228,376.926 20.029 C 376.863 19.830,376.741 19.667,376.655 19.667 C 376.570 19.667,376.500 19.517,376.500 19.333 C 376.500 19.150,376.425 19.000,376.333 19.000 C 376.242 19.000,376.167 18.850,376.167 18.667 C 376.167 18.483,376.092 18.333,376.000 18.333 C 375.908 18.333,375.833 18.000,375.833 17.593 C 375.833 17.186,375.758 16.807,375.667 16.750 C 375.573 16.692,375.500 15.887,375.500 14.907 C 375.500 13.858,375.566 13.167,375.667 13.167 C 375.758 13.167,375.833 12.829,375.833 12.417 C 375.833 12.004,375.908 11.667,376.000 11.667 C 376.092 11.667,376.167 11.442,376.167 11.167 C 376.167 10.892,376.242 10.667,376.333 10.667 C 376.425 10.667,376.500 10.525,376.500 10.351 C 376.500 10.178,376.613 9.992,376.750 9.940 C 376.887 9.887,377.000 9.708,377.000 9.542 C 377.000 9.376,377.150 9.132,377.333 9.000 C 377.517 8.868,377.667 8.643,377.667 8.500 C 377.667 8.357,377.817 8.132,378.000 8.000 C 378.183 7.868,378.333 7.696,378.333 7.618 C 378.333 7.447,378.762 7.000,378.927 7.000 C 378.991 7.000,379.166 6.868,379.314 6.707 C 379.462 6.546,379.790 6.308,380.042 6.179 C 380.294 6.050,380.500 5.881,380.500 5.805 C 380.500 5.729,380.652 5.667,380.839 5.667 C 381.025 5.667,381.220 5.554,381.273 5.417 C 381.326 5.279,381.511 5.167,381.684 5.167 C 381.858 5.167,382.000 5.092,382.000 5.000 C 382.000 4.908,382.225 4.833,382.500 4.833 C 382.775 4.833,383.000 4.758,383.000 4.667 C 383.000 4.573,383.472 4.500,384.083 4.500 C 384.694 4.500,385.167 4.427,385.167 4.333 C 385.167 4.242,385.387 4.167,385.657 4.167 C 385.926 4.167,386.193 4.242,386.250 4.333 C 386.307 4.425,386.761 4.500,387.260 4.500 C 387.759 4.500,388.167 4.575,388.167 4.667 C 388.167 4.758,388.429 4.833,388.750 4.833 C 389.071 4.833,389.333 4.908,389.333 5.000 C 389.333 5.092,389.483 5.167,389.667 5.167 C 389.852 5.167,390.000 5.278,390.000 5.417 C 390.000 5.554,390.139 5.667,390.309 5.667 C 390.478 5.667,390.853 5.892,391.140 6.167 C 391.428 6.442,391.760 6.667,391.878 6.667 C 391.996 6.667,392.201 6.817,392.333 7.000 C 392.465 7.183,392.670 7.333,392.787 7.333 C 392.904 7.333,393.000 7.472,393.000 7.642 C 393.000 7.812,393.225 8.186,393.500 8.474 C 393.775 8.762,394.002 9.091,394.005 9.207 C 394.013 9.527,394.424 10.000,394.693 10.000 C 395.095 10.000,395.831 9.596,395.832 9.375 C 395.833 9.260,395.983 9.167,396.167 9.167 C 396.350 9.167,396.500 9.092,396.500 9.000 C 396.500 8.908,396.688 8.833,396.917 8.833 C 397.146 8.833,397.333 8.758,397.333 8.667 C 397.333 8.575,397.451 8.500,397.595 8.500 C 398.315 8.500,398.568 7.481,398.000 6.872 C 397.817 6.675,397.667 6.430,397.667 6.328 C 397.667 6.122,397.257 5.667,397.072 5.667 C 396.896 5.667,396.511 5.118,396.505 4.858 C 396.500 4.622,395.044 3.167,394.812 3.167 C 394.738 3.167,394.415 2.904,394.094 2.583 C 393.774 2.263,393.359 2.000,393.172 2.000 C 392.986 2.000,392.833 1.925,392.833 1.833 C 392.833 1.742,392.683 1.667,392.500 1.667 C 392.317 1.667,392.167 1.592,392.167 1.500 C 392.167 1.408,392.025 1.333,391.851 1.333 C 391.678 1.333,391.492 1.221,391.440 1.083 C 391.387 0.946,391.191 0.833,391.005 0.833 C 390.819 0.833,390.667 0.758,390.667 0.667 C 390.667 0.575,390.448 0.500,390.181 0.500 C 389.913 0.500,389.666 0.415,389.631 0.311 C 389.566 0.114,384.068 -0.038,382.458 0.111 M87.667 0.399 C 87.667 0.527,87.779 0.674,87.917 0.727 C 88.196 0.834,88.210 0.807,88.066 0.430 C 87.941 0.105,87.667 0.083,87.667 0.399 M120.083 0.333 C 120.027 0.425,120.093 0.500,120.230 0.500 C 120.368 0.500,120.527 0.425,120.583 0.333 C 120.640 0.242,120.574 0.167,120.436 0.167 C 120.299 0.167,120.140 0.242,120.083 0.333 M16.167 0.635 C 16.167 0.710,16.009 0.940,15.817 1.146 C 15.624 1.353,15.511 1.567,15.566 1.621 C 15.670 1.726,16.499 0.841,16.500 0.625 C 16.500 0.556,16.425 0.500,16.333 0.500 C 16.242 0.500,16.167 0.561,16.167 0.635 M83.122 0.601 C 83.055 0.668,83.000 0.837,83.000 0.978 C 83.000 1.165,83.049 1.184,83.185 1.048 C 83.287 0.946,83.342 0.776,83.307 0.671 C 83.272 0.565,83.188 0.534,83.122 0.601 M119.000 0.764 C 119.000 1.058,119.359 1.007,119.462 0.698 C 119.498 0.589,119.409 0.500,119.264 0.500 C 119.119 0.500,119.000 0.619,119.000 0.764 M128.705 0.698 C 128.808 1.007,129.167 1.058,129.167 0.764 C 129.167 0.619,129.048 0.500,128.903 0.500 C 128.758 0.500,128.669 0.589,128.705 0.698 M40.500 0.980 C 40.500 1.239,40.981 1.741,41.108 1.614 C 41.159 1.564,41.043 1.353,40.850 1.146 C 40.656 0.938,40.500 0.864,40.500 0.980 M164.833 1.791 C 164.323 2.327,163.951 2.833,164.068 2.833 C 164.225 2.833,165.333 1.660,165.333 1.494 C 165.333 1.276,165.311 1.289,164.833 1.791 M21.000 2.000 C 20.700 2.280,20.498 2.553,20.550 2.606 C 20.603 2.659,20.892 2.473,21.192 2.192 C 21.492 1.912,21.695 1.639,21.642 1.586 C 21.589 1.533,21.300 1.720,21.000 2.000 M41.167 2.090 C 41.167 2.254,41.828 2.894,41.911 2.811 C 42.023 2.699,41.518 2.000,41.324 2.000 C 41.237 2.000,41.167 2.041,41.167 2.090 M88.500 2.250 C 88.500 2.387,88.575 2.500,88.667 2.500 C 88.758 2.500,88.833 2.387,88.833 2.250 C 88.833 2.112,88.758 2.000,88.667 2.000 C 88.575 2.000,88.500 2.112,88.500 2.250 M131.667 2.095 C 131.667 2.228,132.029 2.545,132.465 2.793 C 132.667 2.908,132.833 2.940,132.833 2.863 C 132.833 2.786,132.646 2.623,132.417 2.500 C 132.188 2.377,132.000 2.215,132.000 2.139 C 132.000 2.062,131.925 2.000,131.833 2.000 C 131.742 2.000,131.667 2.043,131.667 2.095 M82.333 2.583 C 82.333 2.721,82.408 2.833,82.500 2.833 C 82.592 2.833,82.667 2.721,82.667 2.583 C 82.667 2.446,82.592 2.333,82.500 2.333 C 82.408 2.333,82.333 2.446,82.333 2.583 M115.542 2.583 C 115.225 2.943,115.290 3.012,115.750 2.803 C 115.979 2.699,116.167 2.550,116.167 2.473 C 116.167 2.253,115.771 2.322,115.542 2.583 M169.917 2.720 C 169.446 3.238,168.667 4.292,168.667 4.411 C 168.667 4.466,168.929 4.249,169.250 3.928 C 169.571 3.607,169.833 3.267,169.833 3.172 C 169.833 3.077,169.890 3.000,169.960 3.000 C 170.030 3.000,170.180 2.850,170.295 2.667 C 170.570 2.225,170.336 2.259,169.917 2.720 M13.941 3.351 C 13.595 3.727,13.351 4.073,13.398 4.120 C 13.500 4.222,13.775 3.941,14.297 3.204 C 14.807 2.482,14.698 2.527,13.941 3.351 M42.000 3.147 C 42.000 3.406,42.481 3.908,42.608 3.781 C 42.659 3.730,42.543 3.520,42.350 3.313 C 42.156 3.105,42.000 3.031,42.000 3.147 M133.167 3.263 C 133.167 3.434,134.539 4.684,134.628 4.594 C 134.676 4.546,134.404 4.206,134.024 3.837 C 133.354 3.187,133.167 3.062,133.167 3.263 M18.879 4.458 C 18.302 4.998,17.905 5.667,18.161 5.667 C 18.256 5.667,18.333 5.582,18.333 5.478 C 18.333 5.374,18.465 5.167,18.625 5.018 C 19.062 4.612,19.564 4.000,19.460 4.000 C 19.410 4.000,19.148 4.206,18.879 4.458 M81.500 4.411 C 81.500 4.561,81.598 4.619,81.750 4.560 C 81.887 4.508,82.000 4.397,82.000 4.316 C 82.000 4.234,81.887 4.167,81.750 4.167 C 81.612 4.167,81.500 4.277,81.500 4.411 M122.167 4.333 C 122.167 4.425,122.429 4.500,122.750 4.500 C 123.071 4.500,123.333 4.425,123.333 4.333 C 123.333 4.242,123.071 4.167,122.750 4.167 C 122.429 4.167,122.167 4.242,122.167 4.333 M124.833 4.333 C 124.833 4.425,125.138 4.500,125.510 4.500 C 125.918 4.500,126.146 4.434,126.083 4.333 C 126.027 4.242,125.722 4.167,125.407 4.167 C 125.091 4.167,124.833 4.242,124.833 4.333 M162.292 4.636 C 161.807 5.113,161.718 5.333,162.012 5.333 C 162.243 5.333,162.667 4.909,162.667 4.679 C 162.667 4.580,162.742 4.500,162.833 4.500 C 162.925 4.500,163.000 4.425,163.000 4.333 C 163.000 4.062,162.779 4.157,162.292 4.636 M189.000 4.333 C 189.000 4.425,189.112 4.500,189.250 4.500 C 189.387 4.500,189.500 4.425,189.500 4.333 C 189.500 4.242,189.387 4.167,189.250 4.167 C 189.112 4.167,189.000 4.242,189.000 4.333 M273.083 4.333 C 273.140 4.425,273.557 4.500,274.010 4.500 C 274.463 4.500,274.833 4.575,274.833 4.667 C 274.833 4.758,275.021 4.833,275.250 4.833 C 275.479 4.833,275.667 4.908,275.667 5.000 C 275.667 5.092,275.817 5.167,276.000 5.167 C 276.183 5.167,276.333 5.249,276.333 5.350 C 276.333 5.451,276.558 5.743,276.833 6.000 C 277.318 6.453,277.333 6.513,277.333 7.988 L 277.333 9.509 276.588 10.254 C 276.178 10.664,275.765 11.000,275.671 11.000 C 275.577 11.000,275.500 11.075,275.500 11.167 C 275.500 11.258,275.350 11.333,275.167 11.333 C 274.981 11.333,274.833 11.444,274.833 11.583 C 274.833 11.783,274.583 11.833,273.583 11.833 C 272.861 11.833,272.333 11.904,272.333 12.000 C 272.333 12.104,271.361 12.167,269.750 12.167 L 267.167 12.167 267.167 8.167 L 267.167 4.167 270.073 4.167 C 271.832 4.167,273.021 4.233,273.083 4.333 M121.000 4.667 C 121.000 4.758,121.112 4.833,121.250 4.833 C 121.388 4.833,121.500 4.758,121.500 4.667 C 121.500 4.575,121.388 4.500,121.250 4.500 C 121.112 4.500,121.000 4.575,121.000 4.667 M126.667 4.667 C 126.667 4.758,126.779 4.833,126.917 4.833 C 127.054 4.833,127.167 4.758,127.167 4.667 C 127.167 4.575,127.054 4.500,126.917 4.500 C 126.779 4.500,126.667 4.575,126.667 4.667 M120.000 5.000 C 120.000 5.092,120.112 5.167,120.250 5.167 C 120.388 5.167,120.500 5.092,120.500 5.000 C 120.500 4.908,120.388 4.833,120.250 4.833 C 120.112 4.833,120.000 4.908,120.000 5.000 M127.667 5.000 C 127.667 5.092,127.779 5.167,127.917 5.167 C 128.054 5.167,128.167 5.092,128.167 5.000 C 128.167 4.908,128.054 4.833,127.917 4.833 C 127.779 4.833,127.667 4.908,127.667 5.000 M81.278 5.111 C 81.075 5.314,81.163 5.491,81.417 5.394 C 81.554 5.341,81.667 5.231,81.667 5.149 C 81.667 4.974,81.437 4.952,81.278 5.111 M119.182 5.625 C 118.961 5.831,118.849 5.998,118.932 5.995 C 119.178 5.986,119.707 5.533,119.642 5.386 C 119.610 5.311,119.403 5.419,119.182 5.625 M128.500 5.417 C 128.500 5.554,128.610 5.667,128.745 5.667 C 128.894 5.667,128.952 5.569,128.894 5.417 C 128.841 5.279,128.731 5.167,128.649 5.167 C 128.567 5.167,128.500 5.279,128.500 5.417 M167.665 5.292 C 167.664 5.360,167.397 5.698,167.071 6.042 C 166.746 6.385,166.567 6.667,166.675 6.667 C 166.888 6.667,168.000 5.520,168.000 5.301 C 168.000 5.227,167.925 5.167,167.833 5.167 C 167.742 5.167,167.666 5.223,167.665 5.292 M43.333 5.500 C 43.333 5.592,43.446 5.667,43.583 5.667 C 43.721 5.667,43.833 5.592,43.833 5.500 C 43.833 5.408,43.721 5.333,43.583 5.333 C 43.446 5.333,43.333 5.408,43.333 5.500 M112.708 5.593 C 112.463 5.860,112.442 6.000,112.649 6.000 C 112.791 6.000,113.057 5.499,112.962 5.410 C 112.937 5.386,112.823 5.469,112.708 5.593 M11.583 6.060 C 10.820 6.914,10.620 7.167,10.707 7.167 C 10.816 7.167,11.658 6.367,11.979 5.958 C 12.311 5.534,11.976 5.620,11.583 6.060 M89.833 5.816 C 89.833 5.897,89.946 6.008,90.083 6.060 C 90.236 6.119,90.333 6.061,90.333 5.911 C 90.333 5.777,90.221 5.667,90.083 5.667 C 89.946 5.667,89.833 5.734,89.833 5.816 M135.333 5.762 C 135.333 5.939,135.848 6.374,135.944 6.278 C 135.997 6.225,135.924 6.066,135.782 5.925 C 135.517 5.660,135.333 5.593,135.333 5.762 M129.500 6.167 C 129.500 6.258,129.561 6.333,129.635 6.333 C 129.710 6.333,129.940 6.491,130.146 6.683 C 130.353 6.876,130.567 6.989,130.621 6.934 C 130.726 6.830,129.841 6.001,129.625 6.000 C 129.556 6.000,129.500 6.075,129.500 6.167 M117.417 6.891 C 116.646 7.716,116.444 7.999,116.552 8.107 C 116.656 8.212,117.167 7.771,117.167 7.576 C 117.167 7.513,117.444 7.208,117.783 6.897 C 118.121 6.587,118.290 6.338,118.158 6.345 C 118.025 6.351,117.692 6.597,117.417 6.891 M80.500 6.917 C 80.500 7.054,80.575 7.167,80.667 7.167 C 80.758 7.167,80.833 7.054,80.833 6.917 C 80.833 6.779,80.758 6.667,80.667 6.667 C 80.575 6.667,80.500 6.779,80.500 6.917 M85.374 6.931 C 85.073 7.253,85.115 7.333,85.583 7.333 C 85.828 7.333,86.000 7.238,86.000 7.101 C 86.000 6.771,85.620 6.668,85.374 6.931 M111.768 6.930 C 111.623 7.307,111.637 7.334,111.917 7.227 C 112.054 7.174,112.167 7.027,112.167 6.899 C 112.167 6.583,111.893 6.605,111.768 6.930 M136.000 6.885 C 136.000 7.020,136.118 7.176,136.262 7.232 C 136.445 7.302,136.508 7.248,136.470 7.055 C 136.402 6.702,136.000 6.557,136.000 6.885 M159.941 7.351 C 159.595 7.727,159.354 8.076,159.405 8.127 C 159.456 8.178,159.638 8.058,159.810 7.860 C 159.982 7.662,160.207 7.500,160.311 7.500 C 160.415 7.500,160.500 7.346,160.500 7.157 C 160.500 6.968,160.575 6.860,160.667 6.917 C 160.758 6.973,160.833 6.940,160.833 6.843 C 160.833 6.515,160.572 6.664,159.941 7.351 M16.375 7.249 C 16.260 7.379,16.167 7.555,16.167 7.639 C 16.167 7.724,16.054 7.886,15.917 8.000 C 15.779 8.114,15.667 8.277,15.667 8.361 C 15.667 8.446,15.854 8.328,16.083 8.098 C 16.313 7.869,16.500 7.603,16.500 7.508 C 16.500 7.412,16.575 7.333,16.667 7.333 C 16.758 7.333,16.833 7.258,16.833 7.167 C 16.833 6.932,16.621 6.970,16.375 7.249 M39.417 18.363 C 39.417 27.295,39.460 29.667,39.625 29.667 C 39.990 29.667,39.990 7.633,39.625 7.268 C 39.458 7.101,39.417 9.325,39.417 18.363 M131.000 7.458 C 131.000 7.624,131.758 8.500,131.900 8.500 C 131.962 8.500,131.922 8.333,131.813 8.128 C 131.490 7.524,131.000 7.120,131.000 7.458 M307.833 7.839 C 307.833 8.134,307.937 8.384,308.083 8.440 C 308.221 8.492,308.333 8.678,308.333 8.851 C 308.333 9.025,308.408 9.167,308.500 9.167 C 308.592 9.167,308.667 9.429,308.667 9.750 C 308.667 10.071,308.742 10.333,308.833 10.333 C 308.925 10.333,309.000 10.483,309.000 10.667 C 309.000 10.850,309.075 11.000,309.167 11.000 C 309.258 11.000,309.333 11.225,309.333 11.500 C 309.333 11.775,309.408 12.000,309.500 12.000 C 309.592 12.000,309.667 12.179,309.667 12.399 C 309.667 12.618,309.779 12.841,309.917 12.894 C 310.054 12.946,310.167 13.104,310.167 13.245 C 310.167 13.385,310.242 13.500,310.333 13.500 C 310.425 13.500,310.500 13.762,310.500 14.083 C 310.500 14.404,310.575 14.667,310.667 14.667 C 310.758 14.667,310.833 14.817,310.833 15.000 C 310.833 15.183,310.908 15.333,311.000 15.333 C 311.092 15.333,311.167 15.596,311.167 15.917 C 311.167 16.237,311.242 16.500,311.333 16.500 C 311.425 16.500,311.500 16.650,311.500 16.833 C 311.500 17.017,311.575 17.167,311.667 17.167 C 311.758 17.167,311.833 17.394,311.833 17.672 C 311.833 17.967,311.937 18.217,312.083 18.273 C 312.221 18.326,312.333 18.511,312.333 18.684 C 312.333 18.987,312.133 19.000,307.583 19.000 L 302.833 19.000 302.833 18.417 C 302.833 18.096,302.908 17.833,303.000 17.833 C 303.092 17.833,303.167 17.683,303.167 17.500 C 303.167 17.317,303.242 17.167,303.333 17.167 C 303.425 17.167,303.500 16.979,303.500 16.750 C 303.500 16.521,303.575 16.333,303.667 16.333 C 303.758 16.333,303.833 16.108,303.833 15.833 C 303.833 15.500,303.917 15.333,304.083 15.333 C 304.222 15.333,304.333 15.185,304.333 15.000 C 304.333 14.817,304.408 14.667,304.500 14.667 C 304.592 14.667,304.667 14.404,304.667 14.083 C 304.667 13.762,304.742 13.500,304.833 13.500 C 304.925 13.500,305.000 13.350,305.000 13.167 C 305.000 12.983,305.075 12.833,305.167 12.833 C 305.258 12.833,305.333 12.608,305.333 12.333 C 305.333 12.058,305.408 11.833,305.500 11.833 C 305.592 11.833,305.667 11.654,305.667 11.434 C 305.667 11.215,305.779 10.992,305.917 10.940 C 306.054 10.887,306.167 10.654,306.167 10.422 C 306.167 10.190,306.242 10.000,306.333 10.000 C 306.425 10.000,306.500 9.813,306.500 9.583 C 306.500 9.354,306.575 9.167,306.667 9.167 C 306.758 9.167,306.833 8.942,306.833 8.667 C 306.833 8.392,306.908 8.167,307.000 8.167 C 307.092 8.167,307.167 7.979,307.167 7.750 C 307.167 7.444,307.256 7.333,307.500 7.333 C 307.760 7.333,307.833 7.444,307.833 7.839 M136.208 7.620 C 136.094 7.661,136.000 7.817,136.000 7.966 C 136.000 8.214,136.025 8.213,136.282 7.956 C 136.583 7.655,136.549 7.498,136.208 7.620 M86.000 7.917 C 86.000 8.054,86.075 8.167,86.167 8.167 C 86.258 8.167,86.333 8.054,86.333 7.917 C 86.333 7.779,86.258 7.667,86.167 7.667 C 86.075 7.667,86.000 7.779,86.000 7.917 M165.125 8.197 C 164.617 8.740,164.578 8.833,164.856 8.833 C 165.055 8.833,165.833 8.005,165.833 7.792 C 165.834 7.561,165.587 7.702,165.125 8.197 M84.833 8.250 C 84.833 8.387,84.908 8.500,85.000 8.500 C 85.092 8.500,85.167 8.387,85.167 8.250 C 85.167 8.112,85.092 8.000,85.000 8.000 C 84.908 8.000,84.833 8.112,84.833 8.250 M8.958 8.997 C 8.347 9.640,8.476 10.048,9.095 9.429 C 9.226 9.298,9.333 9.110,9.333 9.012 C 9.333 8.914,9.408 8.833,9.500 8.833 C 9.592 8.833,9.667 8.758,9.667 8.667 C 9.667 8.387,9.439 8.493,8.958 8.997 M40.372 8.833 C 40.567 9.146,40.833 9.283,40.833 9.071 C 40.833 8.947,40.385 8.500,40.260 8.500 C 40.207 8.500,40.258 8.650,40.372 8.833 M45.891 8.915 C 46.072 9.305,46.340 9.485,46.328 9.208 C 46.321 9.045,45.906 8.500,45.789 8.500 C 45.739 8.500,45.785 8.687,45.891 8.915 M79.760 8.936 C 79.700 9.176,79.692 9.414,79.742 9.464 C 79.792 9.514,79.833 9.431,79.833 9.278 C 79.833 9.125,79.908 9.000,80.000 9.000 C 80.092 9.000,80.167 8.887,80.167 8.750 C 80.167 8.336,79.877 8.469,79.760 8.936 M134.500 8.667 C 134.500 8.758,134.612 8.833,134.750 8.833 C 134.887 8.833,135.000 8.758,135.000 8.667 C 135.000 8.575,134.887 8.500,134.750 8.500 C 134.612 8.500,134.500 8.575,134.500 8.667 M86.333 8.917 C 86.333 9.054,86.408 9.167,86.500 9.167 C 86.592 9.167,86.667 9.054,86.667 8.917 C 86.667 8.779,86.592 8.667,86.500 8.667 C 86.408 8.667,86.333 8.779,86.333 8.917 M110.788 8.934 C 110.721 9.001,110.667 9.171,110.667 9.311 C 110.667 9.499,110.716 9.517,110.852 9.381 C 110.954 9.279,111.009 9.110,110.974 9.004 C 110.938 8.899,110.855 8.867,110.788 8.934 M157.779 9.855 C 157.429 10.227,157.181 10.570,157.228 10.617 C 157.310 10.699,157.729 10.312,158.401 9.534 C 158.962 8.885,158.439 9.154,157.779 9.855 M132.500 9.529 C 132.500 9.605,132.725 9.667,133.000 9.667 C 133.275 9.667,133.500 9.638,133.500 9.602 C 133.500 9.567,133.275 9.505,133.000 9.464 C 132.725 9.424,132.500 9.453,132.500 9.529 M14.333 9.627 C 14.333 9.697,14.072 10.053,13.753 10.418 C 13.020 11.259,12.987 11.529,13.708 10.787 C 14.357 10.118,14.739 9.500,14.501 9.500 C 14.409 9.500,14.333 9.557,14.333 9.627 M86.667 9.750 C 86.667 9.887,86.742 10.000,86.833 10.000 C 86.925 10.000,87.000 9.887,87.000 9.750 C 87.000 9.612,86.925 9.500,86.833 9.500 C 86.742 9.500,86.667 9.612,86.667 9.750 M79.333 9.911 C 79.333 10.061,79.431 10.119,79.583 10.060 C 79.721 10.008,79.833 9.897,79.833 9.816 C 79.833 9.734,79.721 9.667,79.583 9.667 C 79.446 9.667,79.333 9.777,79.333 9.911 M84.168 9.831 C 83.972 9.953,83.963 10.029,84.124 10.190 C 84.366 10.433,84.552 10.297,84.473 9.934 C 84.433 9.750,84.345 9.720,84.168 9.831 M91.667 10.165 C 91.667 10.271,91.786 10.476,91.932 10.622 C 92.174 10.865,92.192 10.854,92.140 10.498 C 92.083 10.104,91.667 9.811,91.667 10.165 M110.333 10.250 C 110.333 10.387,110.408 10.500,110.500 10.500 C 110.592 10.500,110.667 10.387,110.667 10.250 C 110.667 10.112,110.592 10.000,110.500 10.000 C 110.408 10.000,110.333 10.112,110.333 10.250 M115.000 10.417 C 115.000 10.554,115.075 10.667,115.167 10.667 C 115.258 10.667,115.333 10.554,115.333 10.417 C 115.333 10.279,115.258 10.167,115.167 10.167 C 115.075 10.167,115.000 10.279,115.000 10.417 M79.003 10.792 C 79.005 11.149,79.041 11.195,79.167 11.000 C 79.377 10.674,79.377 10.333,79.167 10.333 C 79.075 10.333,79.001 10.540,79.003 10.792 M83.875 10.610 C 83.585 10.727,83.614 11.000,83.917 11.000 C 84.054 11.000,84.167 10.887,84.167 10.750 C 84.167 10.612,84.148 10.506,84.125 10.513 C 84.102 10.520,83.990 10.564,83.875 10.610 M87.000 10.750 C 87.000 10.887,87.075 11.000,87.167 11.000 C 87.258 11.000,87.333 10.887,87.333 10.750 C 87.333 10.612,87.258 10.500,87.167 10.500 C 87.075 10.500,87.000 10.612,87.000 10.750 M41.872 11.000 C 42.067 11.313,42.333 11.450,42.333 11.238 C 42.333 11.114,41.885 10.667,41.760 10.667 C 41.707 10.667,41.758 10.817,41.872 11.000 M162.667 11.044 C 162.239 11.430,161.754 12.167,161.927 12.167 C 162.092 12.167,162.500 11.700,162.500 11.512 C 162.500 11.414,162.580 11.333,162.679 11.333 C 162.866 11.333,163.333 10.925,163.333 10.762 C 163.333 10.567,163.071 10.678,162.667 11.044 M47.333 11.236 C 47.333 11.381,47.452 11.500,47.597 11.500 C 47.892 11.500,47.840 11.141,47.531 11.038 C 47.422 11.002,47.333 11.091,47.333 11.236 M92.167 11.250 C 92.167 11.387,92.242 11.500,92.333 11.500 C 92.425 11.500,92.500 11.387,92.500 11.250 C 92.500 11.112,92.425 11.000,92.333 11.000 C 92.242 11.000,92.167 11.112,92.167 11.250 M114.667 11.333 C 114.667 11.517,114.742 11.667,114.833 11.667 C 114.925 11.667,115.000 11.517,115.000 11.333 C 115.000 11.150,114.925 11.000,114.833 11.000 C 114.742 11.000,114.667 11.150,114.667 11.333 M6.446 11.858 C 6.188 12.137,6.029 12.414,6.094 12.474 C 6.159 12.534,6.246 12.490,6.287 12.375 C 6.328 12.260,6.435 12.167,6.526 12.167 C 6.809 12.167,7.222 11.655,7.064 11.498 C 6.979 11.414,6.718 11.565,6.446 11.858 M78.667 11.583 C 78.667 11.721,78.742 11.833,78.833 11.833 C 78.925 11.833,79.000 11.721,79.000 11.583 C 79.000 11.446,78.925 11.333,78.833 11.333 C 78.742 11.333,78.667 11.446,78.667 11.583 M87.372 11.531 C 87.475 11.840,87.833 11.892,87.833 11.597 C 87.833 11.452,87.715 11.333,87.569 11.333 C 87.424 11.333,87.335 11.422,87.372 11.531 M109.981 11.458 C 109.822 12.526,109.839 12.685,110.084 12.439 C 110.363 12.161,110.425 11.333,110.167 11.333 C 110.075 11.333,109.992 11.390,109.981 11.458 M42.540 12.035 C 42.791 12.476,43.167 12.902,43.167 12.746 C 43.167 12.541,42.596 11.667,42.463 11.667 C 42.390 11.667,42.425 11.833,42.540 12.035 M83.333 11.917 C 83.333 12.054,83.408 12.167,83.500 12.167 C 83.592 12.167,83.667 12.054,83.667 11.917 C 83.667 11.779,83.592 11.667,83.500 11.667 C 83.408 11.667,83.333 11.779,83.333 11.917 M48.003 11.946 C 48.007 12.202,48.315 12.574,48.427 12.461 C 48.489 12.400,48.418 12.228,48.270 12.079 C 48.121 11.931,48.001 11.871,48.003 11.946 M92.500 12.083 C 92.500 12.221,92.575 12.333,92.667 12.333 C 92.758 12.333,92.833 12.221,92.833 12.083 C 92.833 11.946,92.758 11.833,92.667 11.833 C 92.575 11.833,92.500 11.946,92.500 12.083 M155.583 12.391 C 154.812 13.216,154.610 13.499,154.718 13.607 C 154.819 13.708,155.333 13.274,155.333 13.088 C 155.333 13.031,155.521 12.797,155.750 12.568 C 155.979 12.339,156.167 12.080,156.167 11.992 C 156.167 11.774,156.149 11.786,155.583 12.391 M78.333 12.417 C 78.333 12.554,78.408 12.667,78.500 12.667 C 78.592 12.667,78.667 12.554,78.667 12.417 C 78.667 12.279,78.592 12.167,78.500 12.167 C 78.408 12.167,78.333 12.279,78.333 12.417 M87.731 12.428 C 87.787 12.574,87.833 12.725,87.833 12.764 C 87.833 12.802,87.908 12.833,88.000 12.833 C 88.271 12.833,88.190 12.378,87.898 12.266 C 87.702 12.191,87.657 12.234,87.731 12.428 M114.338 12.542 C 114.100 13.026,114.215 13.352,114.517 13.050 C 114.615 12.952,114.665 12.694,114.629 12.478 L 114.564 12.083 114.338 12.542 M11.556 12.928 C 11.266 13.243,11.101 13.500,11.189 13.500 C 11.421 13.500,12.201 12.684,12.137 12.507 C 12.108 12.424,11.846 12.613,11.556 12.928 M189.000 12.667 C 189.000 12.774,190.694 12.833,193.750 12.833 C 196.806 12.833,198.500 12.774,198.500 12.667 C 198.500 12.559,196.806 12.500,193.750 12.500 C 190.694 12.500,189.000 12.559,189.000 12.667 M92.833 12.990 C 92.833 13.179,92.908 13.333,93.000 13.333 C 93.092 13.333,93.167 13.225,93.167 13.093 C 93.167 12.961,93.092 12.807,93.000 12.750 C 92.908 12.693,92.833 12.801,92.833 12.990 M160.523 13.479 C 160.034 13.935,159.839 14.349,160.125 14.321 C 160.311 14.303,161.223 13.168,161.128 13.072 C 161.083 13.027,160.810 13.210,160.523 13.479 M48.833 13.417 C 48.833 13.554,48.908 13.667,49.000 13.667 C 49.092 13.667,49.167 13.554,49.167 13.417 C 49.167 13.279,49.092 13.167,49.000 13.167 C 48.908 13.167,48.833 13.279,48.833 13.417 M78.000 13.417 C 78.000 13.554,78.075 13.667,78.167 13.667 C 78.258 13.667,78.333 13.554,78.333 13.417 C 78.333 13.279,78.258 13.167,78.167 13.167 C 78.075 13.167,78.000 13.279,78.000 13.417 M93.167 13.730 C 93.167 13.868,93.242 14.027,93.333 14.083 C 93.425 14.140,93.500 14.074,93.500 13.936 C 93.500 13.799,93.425 13.640,93.333 13.583 C 93.242 13.527,93.167 13.593,93.167 13.730 M4.358 14.267 C 4.234 14.407,4.171 14.560,4.217 14.606 C 4.323 14.712,5.000 14.297,5.000 14.127 C 5.000 13.911,4.595 14.000,4.358 14.267 M49.449 14.322 C 49.539 14.666,50.000 14.940,50.000 14.650 C 50.000 14.475,49.593 14.000,49.444 14.000 C 49.400 14.000,49.402 14.145,49.449 14.322 M10.432 14.309 C 10.353 14.436,10.439 14.636,10.651 14.820 C 10.843 14.986,11.000 15.207,11.000 15.311 C 11.000 15.415,11.112 15.500,11.250 15.500 C 11.589 15.500,11.566 15.415,11.108 14.956 C 10.892 14.741,10.681 14.460,10.638 14.332 C 10.578 14.151,10.533 14.146,10.432 14.309 M88.500 14.417 C 88.500 14.554,88.575 14.667,88.667 14.667 C 88.758 14.667,88.833 14.554,88.833 14.417 C 88.833 14.279,88.758 14.167,88.667 14.167 C 88.575 14.167,88.500 14.279,88.500 14.417 M93.500 14.667 C 93.500 14.850,93.575 15.000,93.667 15.000 C 93.758 15.000,93.833 14.850,93.833 14.667 C 93.833 14.483,93.758 14.333,93.667 14.333 C 93.575 14.333,93.500 14.483,93.500 14.667 M114.205 14.833 C 114.205 15.154,114.240 15.285,114.282 15.125 C 114.323 14.965,114.323 14.702,114.282 14.542 C 114.240 14.381,114.205 14.512,114.205 14.833 M50.224 15.415 C 50.421 15.841,50.667 15.974,50.667 15.655 C 50.667 15.477,50.262 15.000,50.111 15.000 C 50.067 15.000,50.118 15.187,50.224 15.415 M160.667 15.064 C 160.667 15.211,161.181 16.015,161.464 16.312 C 161.811 16.674,161.889 16.404,161.554 16.002 C 160.780 15.076,160.667 14.956,160.667 15.064 M44.833 15.500 C 44.833 15.592,44.946 15.667,45.083 15.667 C 45.221 15.667,45.333 15.592,45.333 15.500 C 45.333 15.408,45.221 15.333,45.083 15.333 C 44.946 15.333,44.833 15.408,44.833 15.500 M93.833 15.569 C 93.833 15.715,93.952 15.833,94.097 15.833 C 94.242 15.833,94.331 15.744,94.295 15.635 C 94.192 15.326,93.833 15.275,93.833 15.569 M114.186 16.197 C 114.160 17.014,114.523 17.961,114.628 17.350 C 114.666 17.130,114.619 16.793,114.523 16.600 C 114.428 16.408,114.318 16.100,114.278 15.917 C 114.238 15.733,114.197 15.860,114.186 16.197 M81.708 15.953 C 81.458 16.043,81.428 16.500,81.672 16.500 C 81.844 16.500,82.096 16.033,81.979 15.932 C 81.945 15.903,81.823 15.912,81.708 15.953 M12.021 16.458 C 12.452 17.006,12.683 17.206,12.776 17.113 C 12.827 17.062,12.677 16.828,12.442 16.593 C 11.957 16.109,11.676 16.018,12.021 16.458 M94.333 16.490 C 94.333 16.679,94.408 16.833,94.500 16.833 C 94.592 16.833,94.667 16.725,94.667 16.593 C 94.667 16.461,94.592 16.307,94.500 16.250 C 94.408 16.193,94.333 16.301,94.333 16.490 M274.500 16.667 C 274.500 16.758,274.762 16.833,275.083 16.833 C 275.404 16.833,275.667 16.908,275.667 17.000 C 275.667 17.092,275.875 17.167,276.130 17.167 C 276.402 17.167,276.692 17.304,276.833 17.500 C 276.965 17.683,277.206 17.833,277.367 17.833 C 277.541 17.833,277.703 18.003,277.765 18.250 C 277.822 18.479,277.936 18.667,278.018 18.667 C 278.100 18.667,278.167 18.817,278.167 19.000 C 278.167 19.183,278.242 19.333,278.333 19.333 C 278.432 19.333,278.500 19.944,278.500 20.833 C 278.500 21.722,278.432 22.333,278.333 22.333 C 278.242 22.333,278.167 22.526,278.167 22.762 C 278.167 23.156,277.838 23.667,277.583 23.667 C 277.444 23.667,277.000 24.111,277.000 24.250 C 277.000 24.455,276.522 24.833,276.262 24.833 C 276.118 24.833,276.000 24.908,276.000 25.000 C 276.000 25.092,275.662 25.167,275.250 25.167 C 274.837 25.167,274.500 25.242,274.500 25.333 C 274.500 25.439,273.167 25.500,270.833 25.500 L 267.167 25.500 267.167 21.000 L 267.167 16.500 270.833 16.500 C 273.167 16.500,274.500 16.561,274.500 16.667 M89.500 16.922 C 89.500 17.057,89.612 17.167,89.750 17.167 C 89.888 17.167,90.000 17.100,90.000 17.018 C 90.000 16.936,89.888 16.826,89.750 16.773 C 89.598 16.715,89.500 16.773,89.500 16.922 M189.391 17.042 C 189.348 17.110,191.249 17.151,193.615 17.132 C 197.940 17.098,197.482 17.039,192.275 16.959 C 190.731 16.936,189.433 16.973,189.391 17.042 M51.667 17.551 C 51.667 17.839,51.756 18.000,51.917 18.000 C 52.228 18.000,52.226 17.843,51.911 17.426 C 51.677 17.116,51.667 17.121,51.667 17.551 M94.667 17.417 C 94.667 17.554,94.742 17.667,94.833 17.667 C 94.925 17.667,95.000 17.554,95.000 17.417 C 95.000 17.279,94.925 17.167,94.833 17.167 C 94.742 17.167,94.667 17.279,94.667 17.417 M76.167 17.750 C 76.167 17.887,76.242 18.000,76.333 18.000 C 76.425 18.000,76.500 17.887,76.500 17.750 C 76.500 17.612,76.425 17.500,76.333 17.500 C 76.242 17.500,76.167 17.612,76.167 17.750 M162.500 17.750 C 162.500 17.887,162.606 18.000,162.736 18.000 C 162.866 18.000,163.006 18.094,163.047 18.208 C 163.088 18.323,163.174 18.368,163.239 18.308 C 163.366 18.190,162.845 17.500,162.630 17.500 C 162.558 17.500,162.500 17.612,162.500 17.750 M7.013 17.988 C 6.823 18.154,6.667 18.368,6.667 18.464 C 6.667 18.560,6.573 18.672,6.458 18.713 C 6.344 18.754,6.306 18.847,6.373 18.920 C 6.441 18.993,6.681 18.853,6.907 18.609 C 7.416 18.061,7.482 18.061,7.953 18.609 C 8.402 19.132,8.448 18.996,8.050 18.323 C 7.682 17.699,7.438 17.620,7.013 17.988 M109.917 17.833 C 109.795 18.030,109.953 18.333,110.177 18.333 C 110.263 18.333,110.333 18.183,110.333 18.000 C 110.333 17.648,110.091 17.551,109.917 17.833 M13.503 18.163 C 13.773 18.679,14.154 19.068,14.272 18.950 C 14.322 18.901,14.120 18.610,13.824 18.305 C 13.379 17.845,13.324 17.821,13.503 18.163 M114.667 18.583 C 114.667 18.721,114.742 18.833,114.833 18.833 C 114.925 18.833,115.000 18.721,115.000 18.583 C 115.000 18.446,114.925 18.333,114.833 18.333 C 114.742 18.333,114.667 18.446,114.667 18.583 M47.000 18.646 C 47.000 18.721,47.145 18.913,47.322 19.073 C 47.630 19.352,47.640 19.350,47.555 19.027 C 47.469 18.698,47.000 18.376,47.000 18.646 M90.333 18.740 C 90.333 18.969,89.774 19.000,85.583 19.000 C 82.528 19.000,80.833 18.941,80.833 18.833 C 80.833 18.742,80.758 18.667,80.667 18.667 C 80.575 18.667,80.500 18.817,80.500 19.000 C 80.500 19.326,80.611 19.333,85.583 19.333 C 90.504 19.333,90.667 19.323,90.667 19.010 C 90.667 18.832,90.592 18.640,90.500 18.583 C 90.408 18.527,90.333 18.597,90.333 18.740 M155.546 19.287 C 154.944 19.969,154.932 20.256,155.532 19.640 C 156.129 19.026,156.388 18.666,156.229 18.672 C 156.149 18.675,155.841 18.952,155.546 19.287 M157.839 18.958 C 157.848 19.184,158.283 19.667,158.477 19.667 C 158.763 19.667,158.706 19.490,158.308 19.145 C 157.914 18.803,157.831 18.770,157.839 18.958 M115.000 19.323 C 115.000 19.512,115.075 19.667,115.167 19.667 C 115.258 19.667,115.333 19.559,115.333 19.427 C 115.333 19.294,115.258 19.140,115.167 19.083 C 115.075 19.027,115.000 19.135,115.000 19.323 M75.444 19.444 C 75.230 19.659,75.333 19.990,75.583 19.894 C 75.721 19.841,75.833 19.693,75.833 19.566 C 75.833 19.320,75.631 19.258,75.444 19.444 M164.000 19.500 C 164.000 19.592,164.075 19.667,164.167 19.667 C 164.258 19.667,164.333 19.752,164.333 19.855 C 164.333 20.020,164.951 20.667,165.109 20.667 C 165.275 20.667,165.110 20.358,164.684 19.875 C 164.191 19.316,164.000 19.211,164.000 19.500 M9.000 19.833 C 9.000 19.925,9.075 20.000,9.167 20.000 C 9.258 20.000,9.333 20.112,9.333 20.250 C 9.333 20.387,9.408 20.500,9.500 20.500 C 9.742 20.500,9.704 20.180,9.429 19.905 C 9.149 19.626,9.000 19.601,9.000 19.833 M53.167 19.899 C 53.167 20.027,53.279 20.174,53.417 20.227 C 53.696 20.334,53.710 20.307,53.566 19.930 C 53.441 19.605,53.167 19.583,53.167 19.899 M95.667 20.000 C 95.667 20.092,95.742 20.167,95.833 20.167 C 95.925 20.167,96.000 20.292,96.000 20.444 C 96.000 20.597,96.044 20.678,96.099 20.624 C 96.238 20.485,96.010 19.833,95.822 19.833 C 95.737 19.833,95.667 19.908,95.667 20.000 M15.000 20.278 C 15.000 20.431,15.049 20.507,15.109 20.447 C 15.168 20.387,15.312 20.468,15.428 20.627 C 15.544 20.786,15.695 20.860,15.763 20.792 C 15.831 20.724,15.713 20.518,15.501 20.334 C 15.034 19.929,15.000 19.925,15.000 20.278 M132.708 20.110 C 132.322 20.266,132.496 20.500,133.000 20.500 C 133.275 20.500,133.500 20.417,133.500 20.316 C 133.500 20.214,133.384 20.176,133.241 20.230 C 133.093 20.287,133.026 20.259,133.085 20.165 C 133.192 19.991,133.054 19.971,132.708 20.110 M5.042 20.277 C 4.927 20.323,4.833 20.440,4.833 20.536 C 4.833 20.632,4.671 20.851,4.473 21.023 C 4.275 21.195,4.161 21.383,4.218 21.441 C 4.335 21.558,5.333 20.551,5.333 20.316 C 5.333 20.234,5.315 20.173,5.292 20.180 C 5.269 20.187,5.156 20.231,5.042 20.277 M110.667 20.583 C 110.667 20.721,110.742 20.833,110.833 20.833 C 110.925 20.833,111.000 20.721,111.000 20.583 C 111.000 20.446,110.925 20.333,110.833 20.333 C 110.742 20.333,110.667 20.446,110.667 20.583 M48.505 20.804 C 48.502 20.925,48.612 21.136,48.750 21.274 C 49.071 21.595,49.075 21.330,48.755 20.907 C 48.602 20.704,48.509 20.665,48.505 20.804 M159.334 20.799 C 159.333 20.918,159.521 21.203,159.750 21.432 C 160.291 21.972,160.291 21.696,159.750 21.068 C 159.521 20.801,159.334 20.680,159.334 20.799 M134.500 21.000 C 134.500 21.092,134.612 21.167,134.750 21.167 C 134.887 21.167,135.000 21.092,135.000 21.000 C 135.000 20.908,134.887 20.833,134.750 20.833 C 134.612 20.833,134.500 20.908,134.500 21.000 M131.705 21.300 C 131.500 21.477,131.333 21.707,131.333 21.811 C 131.333 22.083,131.454 22.046,131.844 21.656 C 132.301 21.199,132.179 20.889,131.705 21.300 M116.163 21.375 C 116.260 21.490,116.489 21.764,116.671 21.985 C 116.853 22.206,117.058 22.327,117.126 22.254 C 117.194 22.181,117.156 22.088,117.042 22.047 C 116.927 22.006,116.833 21.898,116.833 21.808 C 116.833 21.585,116.402 21.167,116.172 21.167 C 116.041 21.167,116.038 21.228,116.163 21.375 M165.752 21.506 C 165.876 21.897,166.220 22.333,166.405 22.333 C 166.632 22.333,166.466 21.951,166.063 21.548 C 165.627 21.112,165.627 21.112,165.752 21.506 M10.333 21.581 C 10.333 21.725,10.903 22.333,11.037 22.333 C 11.273 22.333,11.172 21.957,10.875 21.732 C 10.575 21.505,10.333 21.437,10.333 21.581 M136.000 21.750 C 136.000 21.887,136.075 22.000,136.167 22.000 C 136.399 22.000,136.376 22.558,136.133 22.800 C 135.984 22.949,135.983 23.000,136.127 23.000 C 136.481 23.000,136.719 22.332,136.521 21.896 C 136.320 21.454,136.000 21.365,136.000 21.750 M49.167 21.904 C 49.167 22.029,49.279 22.174,49.417 22.227 C 49.563 22.283,49.667 22.229,49.667 22.096 C 49.667 21.971,49.554 21.826,49.417 21.773 C 49.270 21.717,49.167 21.771,49.167 21.904 M54.667 22.083 C 54.667 22.221,54.742 22.333,54.833 22.333 C 54.925 22.333,55.000 22.221,55.000 22.083 C 55.000 21.946,54.925 21.833,54.833 21.833 C 54.742 21.833,54.667 21.946,54.667 22.083 M16.833 22.439 C 16.833 22.589,17.540 23.182,17.622 23.101 C 17.744 22.978,17.258 22.333,17.043 22.333 C 16.928 22.333,16.833 22.381,16.833 22.439 M111.667 22.755 C 111.667 22.890,111.779 23.000,111.917 23.000 C 112.054 23.000,112.167 22.933,112.167 22.851 C 112.167 22.769,112.054 22.659,111.917 22.606 C 111.764 22.548,111.667 22.606,111.667 22.755 M160.833 22.674 C 160.833 22.883,161.656 23.733,161.758 23.631 C 161.798 23.591,161.681 23.399,161.498 23.203 C 161.316 23.007,161.167 22.769,161.167 22.674 C 161.167 22.578,161.092 22.500,161.000 22.500 C 160.908 22.500,160.833 22.578,160.833 22.674 M167.167 23.147 C 167.167 23.236,167.279 23.422,167.417 23.560 C 167.554 23.697,167.667 23.858,167.667 23.917 C 167.667 24.050,168.108 24.500,168.240 24.500 C 168.387 24.500,167.963 23.816,167.542 23.377 C 167.335 23.161,167.167 23.058,167.167 23.147 M11.833 23.416 C 11.833 23.462,12.096 23.778,12.417 24.118 C 12.737 24.458,13.000 24.678,13.000 24.606 C 13.000 24.535,12.906 24.378,12.792 24.259 C 12.677 24.139,12.473 23.882,12.338 23.687 C 12.114 23.364,11.833 23.213,11.833 23.416 M78.833 23.500 C 78.833 23.608,81.226 23.667,85.677 23.667 C 90.196 23.667,92.485 23.610,92.417 23.500 C 92.351 23.393,89.887 23.333,85.573 23.333 C 81.191 23.333,78.833 23.392,78.833 23.500 M97.167 23.583 C 97.167 23.721,97.242 23.833,97.333 23.833 C 97.425 23.833,97.500 23.721,97.500 23.583 C 97.500 23.446,97.425 23.333,97.333 23.333 C 97.242 23.333,97.167 23.446,97.167 23.583 M118.168 23.458 C 118.169 23.527,118.356 23.670,118.585 23.776 C 119.053 23.993,119.113 23.923,118.762 23.571 C 118.508 23.317,118.166 23.252,118.168 23.458 M129.375 23.583 C 129.063 23.937,129.121 23.990,129.582 23.776 C 129.810 23.670,129.998 23.527,129.999 23.458 C 130.001 23.250,129.597 23.331,129.375 23.583 M73.611 23.778 C 73.419 23.970,73.490 24.167,73.750 24.167 C 73.887 24.167,74.000 24.054,74.000 23.917 C 74.000 23.656,73.803 23.586,73.611 23.778 M78.455 23.934 C 78.388 24.001,78.333 24.171,78.333 24.311 C 78.333 24.499,78.383 24.517,78.519 24.381 C 78.621 24.279,78.675 24.110,78.640 24.004 C 78.605 23.899,78.522 23.867,78.455 23.934 M92.500 24.083 C 92.500 24.221,92.575 24.333,92.667 24.333 C 92.758 24.333,92.833 24.221,92.833 24.083 C 92.833 23.946,92.758 23.833,92.667 23.833 C 92.575 23.833,92.500 23.946,92.500 24.083 M18.333 24.179 C 18.333 24.445,18.831 24.892,18.966 24.747 C 19.031 24.678,18.990 24.588,18.875 24.547 C 18.760 24.506,18.667 24.366,18.667 24.236 C 18.667 24.106,18.592 24.000,18.500 24.000 C 18.408 24.000,18.333 24.080,18.333 24.179 M50.705 24.198 C 50.808 24.507,51.167 24.558,51.167 24.264 C 51.167 24.119,51.048 24.000,50.903 24.000 C 50.758 24.000,50.669 24.089,50.705 24.198 M119.273 24.250 C 119.326 24.387,119.436 24.500,119.518 24.500 C 119.600 24.500,119.667 24.387,119.667 24.250 C 119.667 24.113,119.557 24.000,119.422 24.000 C 119.273 24.000,119.215 24.098,119.273 24.250 M128.611 24.111 C 128.452 24.270,128.474 24.500,128.649 24.500 C 128.731 24.500,128.841 24.387,128.894 24.250 C 128.991 23.996,128.814 23.909,128.611 24.111 M162.172 24.297 C 162.184 24.547,162.847 25.208,162.963 25.084 C 163.029 25.013,162.990 24.921,162.875 24.880 C 162.760 24.839,162.667 24.707,162.667 24.587 C 162.667 24.467,162.554 24.326,162.417 24.273 C 162.279 24.220,162.169 24.231,162.172 24.297 M134.625 24.843 C 134.124 25.365,134.068 25.500,134.356 25.500 C 134.555 25.500,135.333 24.671,135.333 24.458 C 135.334 24.228,135.087 24.362,134.625 24.843 M78.017 24.968 C 77.904 25.179,77.842 25.441,77.878 25.550 C 77.915 25.663,78.033 25.583,78.150 25.365 C 78.263 25.154,78.325 24.892,78.289 24.783 C 78.251 24.670,78.134 24.750,78.017 24.968 M92.833 24.917 C 92.833 25.054,92.908 25.167,93.000 25.167 C 93.092 25.167,93.167 25.054,93.167 24.917 C 93.167 24.779,93.092 24.667,93.000 24.667 C 92.908 24.667,92.833 24.779,92.833 24.917 M113.167 24.766 C 113.167 24.961,113.916 25.833,114.083 25.833 C 114.153 25.833,114.351 25.995,114.523 26.193 C 114.695 26.391,114.880 26.509,114.934 26.454 C 114.989 26.400,114.778 26.107,114.466 25.803 C 113.557 24.916,113.167 24.604,113.167 24.766 M127.000 25.000 C 127.000 25.092,127.112 25.167,127.250 25.167 C 127.388 25.167,127.500 25.092,127.500 25.000 C 127.500 24.908,127.388 24.833,127.250 24.833 C 127.112 24.833,127.000 24.908,127.000 25.000 M168.684 24.917 C 168.826 25.274,169.590 26.329,169.708 26.331 C 169.967 26.336,169.815 26.045,169.226 25.408 C 168.891 25.046,168.647 24.825,168.684 24.917 M13.333 25.262 C 13.333 25.439,13.848 25.874,13.944 25.778 C 13.997 25.725,13.924 25.566,13.782 25.425 C 13.517 25.160,13.333 25.093,13.333 25.262 M97.833 25.316 C 97.833 25.397,97.946 25.508,98.083 25.560 C 98.236 25.619,98.333 25.561,98.333 25.411 C 98.333 25.277,98.221 25.167,98.083 25.167 C 97.946 25.167,97.833 25.234,97.833 25.316 M121.833 25.333 C 121.833 25.425,122.063 25.500,122.343 25.500 C 122.641 25.500,122.810 25.431,122.750 25.333 C 122.693 25.242,122.464 25.167,122.240 25.167 C 122.016 25.167,121.833 25.242,121.833 25.333 M125.583 25.333 C 125.525 25.427,125.662 25.500,125.897 25.500 C 126.126 25.500,126.360 25.425,126.417 25.333 C 126.475 25.239,126.338 25.167,126.103 25.167 C 125.874 25.167,125.640 25.242,125.583 25.333 M72.833 25.750 C 72.833 25.887,72.908 26.000,73.000 26.000 C 73.092 26.000,73.167 25.887,73.167 25.750 C 73.167 25.613,73.092 25.500,73.000 25.500 C 72.908 25.500,72.833 25.613,72.833 25.750 M93.167 25.833 C 93.167 26.017,93.242 26.167,93.333 26.167 C 93.425 26.167,93.500 26.017,93.500 25.833 C 93.500 25.650,93.425 25.500,93.333 25.500 C 93.242 25.500,93.167 25.650,93.167 25.833 M133.268 26.197 C 132.911 26.551,132.670 26.892,132.732 26.955 C 132.795 27.017,133.140 26.756,133.500 26.374 C 134.333 25.490,134.133 25.338,133.268 26.197 M231.486 25.807 C 231.585 25.993,231.667 26.937,231.667 27.906 C 231.667 29.004,231.731 29.667,231.838 29.667 C 232.187 29.667,231.964 25.596,231.611 25.529 C 231.352 25.479,231.333 25.521,231.486 25.807 M19.834 25.958 C 19.834 26.121,20.590 27.000,20.729 27.000 C 20.788 27.000,20.667 26.738,20.460 26.419 C 20.107 25.874,19.833 25.673,19.834 25.958 M201.083 27.750 C 201.083 29.562,201.168 30.005,201.399 29.403 C 201.654 28.739,201.484 25.833,201.191 25.833 C 201.132 25.833,201.083 26.696,201.083 27.750 M163.932 26.583 C 164.238 27.051,164.500 27.127,164.500 26.750 C 164.500 26.613,164.387 26.500,164.250 26.500 C 164.112 26.500,164.000 26.425,164.000 26.333 C 164.000 26.242,163.923 26.167,163.829 26.167 C 163.736 26.167,163.782 26.354,163.932 26.583 M93.530 26.612 C 93.559 26.764,93.677 26.920,93.792 26.958 C 94.098 27.060,94.046 26.553,93.738 26.435 C 93.555 26.365,93.492 26.418,93.530 26.612 M14.667 26.963 C 14.667 27.142,15.347 27.709,15.444 27.611 C 15.542 27.513,14.976 26.833,14.796 26.833 C 14.725 26.833,14.667 26.892,14.667 26.963 M52.833 27.325 C 52.833 27.434,52.946 27.636,53.083 27.774 C 53.298 27.988,53.333 27.989,53.333 27.782 C 53.333 27.649,53.221 27.447,53.083 27.333 C 52.894 27.176,52.833 27.174,52.833 27.325 M21.167 27.415 C 21.167 27.780,22.138 28.921,22.300 28.747 C 22.364 28.678,22.323 28.588,22.208 28.547 C 22.094 28.506,22.000 28.400,22.000 28.312 C 22.000 28.224,21.813 27.964,21.583 27.735 C 21.354 27.506,21.167 27.362,21.167 27.415 M72.167 27.583 C 72.167 27.721,72.242 27.833,72.333 27.833 C 72.425 27.833,72.500 27.721,72.500 27.583 C 72.500 27.446,72.425 27.333,72.333 27.333 C 72.242 27.333,72.167 27.446,72.167 27.583 M94.000 27.667 C 94.000 27.850,94.075 28.000,94.167 28.000 C 94.258 28.000,94.333 27.850,94.333 27.667 C 94.333 27.483,94.258 27.333,94.167 27.333 C 94.075 27.333,94.000 27.483,94.000 27.667 M131.542 27.583 C 131.232 27.934,131.289 28.030,131.667 27.795 C 131.850 27.680,132.000 27.530,132.000 27.460 C 132.000 27.261,131.770 27.323,131.542 27.583 M170.500 27.424 C 170.500 27.605,171.166 28.223,171.260 28.129 C 171.403 27.985,170.953 27.333,170.710 27.333 C 170.594 27.333,170.500 27.374,170.500 27.424 M99.000 27.907 C 99.000 28.039,99.075 28.193,99.167 28.250 C 99.258 28.307,99.333 28.199,99.333 28.010 C 99.333 27.821,99.258 27.667,99.167 27.667 C 99.075 27.667,99.000 27.775,99.000 27.907 M71.958 28.096 C 71.890 28.165,71.833 28.375,71.833 28.561 C 71.833 28.806,71.884 28.850,72.016 28.718 C 72.116 28.617,72.172 28.408,72.141 28.253 C 72.109 28.097,72.027 28.027,71.958 28.096 M117.167 28.167 C 117.167 28.258,117.279 28.333,117.417 28.333 C 117.554 28.333,117.667 28.258,117.667 28.167 C 117.667 28.075,117.554 28.000,117.417 28.000 C 117.279 28.000,117.167 28.075,117.167 28.167 M130.500 28.167 C 130.500 28.258,130.612 28.333,130.750 28.333 C 130.887 28.333,131.000 28.258,131.000 28.167 C 131.000 28.075,130.887 28.000,130.750 28.000 C 130.612 28.000,130.500 28.075,130.500 28.167 M165.167 28.081 C 165.167 28.157,165.305 28.336,166.042 29.206 C 166.416 29.649,166.422 29.368,166.048 28.829 C 165.583 28.156,165.167 27.803,165.167 28.081 M117.833 28.475 C 117.833 28.626,119.183 29.206,119.289 29.100 C 119.324 29.065,119.123 28.935,118.843 28.811 C 118.563 28.687,118.333 28.529,118.333 28.459 C 118.333 28.390,118.221 28.333,118.083 28.333 C 117.946 28.333,117.833 28.397,117.833 28.475 M129.773 28.583 C 129.715 28.736,129.773 28.833,129.922 28.833 C 130.057 28.833,130.167 28.721,130.167 28.583 C 130.167 28.446,130.100 28.333,130.018 28.333 C 129.936 28.333,129.826 28.446,129.773 28.583 M16.167 28.802 C 16.167 29.049,16.897 29.727,16.959 29.538 C 16.993 29.437,16.866 29.199,16.677 29.010 C 16.310 28.643,16.167 28.585,16.167 28.802 M129.107 28.782 C 128.919 28.970,128.992 29.167,129.250 29.167 C 129.387 29.167,129.500 29.096,129.500 29.010 C 129.500 28.800,129.240 28.649,129.107 28.782 M71.333 29.417 C 71.333 29.554,71.446 29.667,71.583 29.667 C 71.721 29.667,71.833 29.554,71.833 29.417 C 71.833 29.279,71.721 29.167,71.583 29.167 C 71.446 29.167,71.333 29.279,71.333 29.417 M119.667 29.333 C 119.667 29.425,119.821 29.500,120.010 29.500 C 120.199 29.500,120.307 29.425,120.250 29.333 C 120.193 29.242,120.039 29.167,119.907 29.167 C 119.775 29.167,119.667 29.242,119.667 29.333 M127.917 29.333 C 127.860 29.425,127.926 29.500,128.064 29.500 C 128.201 29.500,128.360 29.425,128.417 29.333 C 128.473 29.242,128.407 29.167,128.270 29.167 C 128.132 29.167,127.973 29.242,127.917 29.333 " stroke="none" fill="#0b73a3" fill-rule="evenodd"></path><path id="path1" d="M0.000 14.833 L 0.000 29.667 2.083 29.667 L 4.167 29.667 4.167 25.453 C 4.167 21.431,4.182 21.229,4.500 21.000 C 4.683 20.868,4.833 20.664,4.833 20.547 C 4.833 20.429,4.901 20.333,4.983 20.333 C 5.224 20.333,6.333 19.156,6.333 18.900 C 6.333 18.772,6.408 18.667,6.500 18.667 C 6.592 18.667,6.667 18.582,6.667 18.478 C 6.667 17.579,7.656 17.626,8.173 18.549 C 8.579 19.275,8.898 19.667,9.083 19.667 C 9.289 19.667,9.667 20.145,9.667 20.405 C 9.667 20.549,9.742 20.667,9.833 20.667 C 9.925 20.667,10.000 20.752,10.000 20.856 C 10.000 21.055,10.829 21.833,11.042 21.833 C 11.110 21.833,11.167 21.945,11.167 22.081 C 11.167 22.323,11.305 22.521,12.167 23.513 C 12.917 24.377,13.000 24.485,13.000 24.593 C 13.000 24.652,13.225 24.910,13.500 25.167 C 13.775 25.424,14.000 25.708,14.000 25.798 C 14.000 25.889,14.338 26.305,14.750 26.723 C 15.163 27.142,15.500 27.567,15.500 27.668 C 15.500 27.770,15.837 28.185,16.250 28.592 C 16.662 28.999,17.000 29.407,17.000 29.499 C 17.000 29.605,18.045 29.667,19.833 29.667 C 22.946 29.667,22.992 29.648,22.083 28.739 C 21.762 28.418,21.500 28.096,21.500 28.024 C 21.500 27.952,21.125 27.491,20.667 27.000 C 20.208 26.509,19.833 26.021,19.833 25.914 C 19.833 25.808,19.498 25.427,19.088 25.069 C 18.678 24.710,18.340 24.310,18.338 24.180 C 18.335 24.049,18.015 23.635,17.625 23.259 C 17.235 22.883,16.809 22.368,16.677 22.115 C 16.368 21.522,15.231 20.325,15.100 20.455 C 15.045 20.510,15.000 20.393,15.000 20.194 C 15.000 19.996,14.925 19.833,14.833 19.833 C 14.742 19.833,14.667 19.756,14.667 19.661 C 14.667 19.566,14.404 19.226,14.083 18.906 C 13.762 18.585,13.500 18.250,13.500 18.162 C 13.500 18.074,13.157 17.654,12.737 17.228 C 12.318 16.803,11.904 16.270,11.819 16.044 C 11.733 15.819,11.514 15.595,11.331 15.548 C 11.149 15.500,11.000 15.385,11.000 15.292 C 11.000 15.199,10.846 14.988,10.657 14.825 C 10.322 14.534,10.475 13.833,10.873 13.833 C 10.943 13.833,11.000 13.757,11.000 13.663 C 11.000 13.569,11.412 13.080,11.917 12.576 C 12.421 12.072,12.833 11.618,12.833 11.568 C 12.833 11.517,12.927 11.382,13.042 11.268 C 13.156 11.153,13.475 10.774,13.750 10.426 C 14.025 10.078,14.681 9.344,15.208 8.794 C 15.735 8.245,16.167 7.726,16.167 7.640 C 16.167 7.555,16.617 7.048,17.167 6.513 C 17.717 5.978,18.167 5.464,18.167 5.371 C 18.167 5.278,18.692 4.666,19.333 4.012 C 19.975 3.357,20.500 2.746,20.500 2.653 C 20.500 2.561,20.912 2.089,21.417 1.605 C 22.972 0.110,22.853 -0.001,19.708 0.005 C 17.105 0.011,16.500 0.128,16.500 0.630 C 16.500 0.847,15.034 2.333,14.820 2.333 C 14.736 2.333,14.667 2.411,14.667 2.507 C 14.667 2.766,14.003 3.653,13.242 4.411 C 12.870 4.781,12.384 5.346,12.161 5.667 C 11.937 5.987,11.285 6.714,10.711 7.281 C 10.136 7.848,9.667 8.429,9.667 8.572 C 9.667 8.716,9.592 8.833,9.500 8.833 C 9.408 8.833,9.333 8.914,9.333 9.012 C 9.333 9.210,8.922 9.667,8.743 9.667 C 8.546 9.667,7.500 10.887,7.500 11.116 C 7.500 11.235,7.406 11.315,7.292 11.292 C 7.177 11.269,7.103 11.348,7.128 11.467 C 7.171 11.679,6.794 12.167,6.588 12.167 C 6.436 12.167,5.667 12.963,5.667 13.120 C 5.667 13.194,5.481 13.394,5.253 13.565 C 5.026 13.736,4.883 13.946,4.936 14.032 C 5.030 14.183,4.550 14.650,4.292 14.661 C 4.223 14.664,4.167 11.367,4.167 7.333 L 4.167 0.000 2.083 0.000 L 0.000 0.000 0.000 14.833 M35.500 14.833 L 35.500 29.667 37.409 29.667 L 39.318 29.667 39.418 29.125 C 39.472 28.827,39.495 23.740,39.467 17.821 C 39.418 7.273,39.457 6.384,39.908 7.805 C 39.973 8.010,40.208 8.359,40.430 8.581 C 40.652 8.803,40.833 9.101,40.833 9.242 C 40.833 9.384,40.954 9.500,41.101 9.500 C 41.271 9.500,41.334 9.592,41.273 9.750 C 41.215 9.902,41.273 10.000,41.422 10.000 C 41.557 10.000,41.667 10.133,41.667 10.297 C 41.667 10.460,41.817 10.701,42.000 10.833 C 42.183 10.965,42.333 11.207,42.333 11.370 C 42.333 11.533,42.392 11.667,42.464 11.667 C 42.536 11.667,42.737 11.910,42.911 12.208 C 43.084 12.506,43.363 12.871,43.530 13.020 C 43.697 13.168,43.833 13.377,43.833 13.485 C 43.833 13.593,43.983 13.842,44.167 14.038 C 44.350 14.235,44.500 14.500,44.500 14.627 C 44.500 14.908,44.904 15.333,45.173 15.333 C 45.284 15.333,45.325 15.449,45.267 15.600 C 45.202 15.770,45.316 15.987,45.582 16.196 C 45.812 16.376,46.000 16.641,46.000 16.784 C 46.000 16.927,46.145 17.170,46.323 17.324 C 46.501 17.478,46.669 17.712,46.698 17.844 C 46.727 17.976,46.900 18.234,47.083 18.418 C 47.267 18.602,47.523 18.958,47.653 19.210 C 47.783 19.461,47.952 19.667,48.028 19.667 C 48.104 19.667,48.167 19.810,48.167 19.986 C 48.167 20.162,48.230 20.331,48.308 20.361 C 48.386 20.392,48.650 20.735,48.894 21.125 C 49.138 21.515,49.412 21.833,49.502 21.833 C 49.593 21.833,49.667 21.983,49.667 22.167 C 49.667 22.350,49.730 22.500,49.807 22.500 C 49.884 22.500,50.121 22.837,50.333 23.250 C 50.545 23.662,50.825 24.000,50.955 24.000 C 51.092 24.000,51.165 24.122,51.129 24.292 C 51.095 24.452,51.239 24.749,51.450 24.950 C 51.661 25.152,51.833 25.417,51.833 25.539 C 51.833 25.660,51.983 25.868,52.167 26.000 C 52.350 26.132,52.500 26.339,52.500 26.461 C 52.500 26.582,52.688 26.883,52.917 27.131 C 53.146 27.378,53.333 27.658,53.333 27.753 C 53.333 27.848,53.483 28.035,53.667 28.167 C 53.850 28.299,54.000 28.540,54.000 28.703 C 54.000 28.867,54.075 29.000,54.167 29.000 C 54.258 29.000,54.333 29.104,54.333 29.232 C 54.333 29.605,54.729 29.667,57.097 29.667 L 59.333 29.667 59.333 14.828 L 59.333 -0.010 57.208 0.037 L 55.083 0.083 55.040 11.208 C 55.013 18.432,54.940 22.333,54.832 22.333 C 54.741 22.333,54.667 22.197,54.667 22.031 C 54.667 21.865,54.517 21.569,54.333 21.372 C 54.150 21.175,54.000 20.941,54.000 20.852 C 54.000 20.764,53.813 20.543,53.583 20.363 C 53.354 20.183,53.167 19.929,53.167 19.799 C 53.167 19.669,53.017 19.402,52.833 19.205 C 52.650 19.008,52.500 18.764,52.500 18.662 C 52.500 18.425,52.079 18.000,51.845 18.000 C 51.747 18.000,51.667 17.829,51.667 17.620 C 51.667 17.411,51.517 17.132,51.333 17.000 C 51.150 16.868,51.000 16.643,51.000 16.500 C 51.000 16.357,50.850 16.132,50.667 16.000 C 50.483 15.868,50.333 15.675,50.333 15.571 C 50.333 15.467,50.165 15.198,49.958 14.974 C 49.752 14.749,49.477 14.363,49.347 14.116 C 49.217 13.869,49.048 13.667,48.972 13.667 C 48.896 13.667,48.833 13.517,48.833 13.333 C 48.833 13.150,48.758 13.000,48.667 13.000 C 48.575 13.000,48.500 12.887,48.500 12.750 C 48.500 12.612,48.434 12.500,48.354 12.500 C 48.273 12.500,48.114 12.275,48.000 12.000 C 47.886 11.725,47.689 11.500,47.563 11.500 C 47.437 11.500,47.333 11.364,47.333 11.198 C 47.333 11.032,47.202 10.751,47.042 10.573 C 46.881 10.395,46.644 10.044,46.514 9.792 C 46.383 9.540,46.215 9.333,46.139 9.333 C 46.062 9.333,46.000 9.232,46.000 9.108 C 46.000 8.984,45.831 8.698,45.625 8.474 C 45.419 8.249,45.144 7.863,45.014 7.616 C 44.883 7.369,44.715 7.167,44.639 7.167 C 44.562 7.167,44.500 7.091,44.500 6.998 C 44.500 6.700,43.758 5.671,43.542 5.669 C 43.427 5.668,43.333 5.517,43.333 5.333 C 43.333 5.150,43.258 5.000,43.167 5.000 C 43.075 5.000,43.000 4.887,43.000 4.750 C 43.000 4.612,42.925 4.500,42.833 4.500 C 42.742 4.500,42.667 4.367,42.667 4.203 C 42.667 4.040,42.517 3.799,42.333 3.667 C 42.150 3.535,42.000 3.327,42.000 3.205 C 42.000 3.084,41.813 2.810,41.583 2.598 C 41.354 2.386,41.167 2.106,41.167 1.976 C 41.167 1.846,41.017 1.632,40.833 1.500 C 40.650 1.368,40.500 1.154,40.500 1.024 C 40.500 0.265,39.742 0.000,37.575 0.000 L 35.500 0.000 35.500 14.833 M83.625 0.180 C 83.465 0.273,83.333 0.492,83.333 0.665 C 83.333 0.838,83.258 1.027,83.167 1.083 C 83.075 1.140,83.000 1.369,83.000 1.593 C 83.000 1.817,82.925 2.000,82.833 2.000 C 82.742 2.000,82.667 2.188,82.667 2.417 C 82.667 2.646,82.592 2.833,82.500 2.833 C 82.408 2.833,82.333 2.983,82.333 3.167 C 82.333 3.350,82.258 3.500,82.167 3.500 C 82.075 3.500,82.000 3.717,82.000 3.982 C 82.000 4.266,81.893 4.506,81.739 4.565 C 81.571 4.629,81.513 4.779,81.577 4.979 C 81.640 5.178,81.583 5.330,81.422 5.392 C 81.281 5.446,81.167 5.675,81.167 5.902 C 81.167 6.128,81.092 6.360,81.000 6.417 C 80.908 6.473,80.833 6.665,80.833 6.843 C 80.833 7.021,80.758 7.167,80.667 7.167 C 80.575 7.167,80.500 7.392,80.500 7.667 C 80.500 7.942,80.425 8.167,80.333 8.167 C 80.242 8.167,80.167 8.348,80.167 8.569 C 80.167 8.791,80.082 9.000,79.979 9.035 C 79.876 9.069,79.792 9.296,79.792 9.539 C 79.792 9.782,79.704 10.014,79.598 10.055 C 79.491 10.096,79.299 10.513,79.172 10.981 C 79.044 11.450,78.878 11.833,78.803 11.833 C 78.728 11.833,78.667 12.021,78.667 12.250 C 78.667 12.479,78.592 12.667,78.500 12.667 C 78.408 12.667,78.333 12.892,78.333 13.167 C 78.333 13.442,78.258 13.667,78.167 13.667 C 78.075 13.667,78.000 13.817,78.000 14.000 C 78.000 14.183,77.904 14.333,77.786 14.333 C 77.669 14.333,77.556 14.536,77.535 14.784 C 77.515 15.032,77.423 15.310,77.332 15.401 C 77.241 15.492,77.167 15.702,77.167 15.867 C 77.167 16.032,77.092 16.167,77.000 16.167 C 76.908 16.167,76.833 16.350,76.833 16.573 C 76.833 16.797,76.758 17.027,76.667 17.083 C 76.575 17.140,76.500 17.369,76.500 17.593 C 76.500 17.817,76.425 18.000,76.333 18.000 C 76.242 18.000,76.167 18.146,76.167 18.323 C 76.167 18.501,76.092 18.693,76.000 18.750 C 75.908 18.807,75.833 19.066,75.833 19.325 C 75.833 19.585,75.735 19.835,75.616 19.881 C 75.496 19.927,75.296 20.291,75.170 20.691 C 75.045 21.090,74.880 21.488,74.804 21.575 C 74.729 21.662,74.667 21.868,74.667 22.033 C 74.667 22.198,74.592 22.333,74.500 22.333 C 74.408 22.333,74.333 22.563,74.333 22.843 C 74.333 23.141,74.264 23.310,74.167 23.250 C 74.069 23.190,74.000 23.359,74.000 23.657 C 74.000 23.999,73.918 24.167,73.750 24.167 C 73.613 24.167,73.516 24.223,73.536 24.292 C 73.599 24.510,73.100 26.000,72.964 26.000 C 72.892 26.000,72.833 26.183,72.833 26.407 C 72.833 26.631,72.758 26.860,72.667 26.917 C 72.575 26.973,72.500 27.203,72.500 27.427 C 72.500 27.650,72.425 27.833,72.333 27.833 C 72.242 27.833,72.167 28.016,72.167 28.240 C 72.167 28.464,72.092 28.693,72.000 28.750 C 71.908 28.807,71.833 29.036,71.833 29.260 L 71.833 29.667 73.967 29.667 C 76.170 29.667,76.500 29.575,76.500 28.964 C 76.500 28.798,76.575 28.513,76.667 28.331 C 76.758 28.149,76.908 27.851,77.000 27.669 C 77.092 27.487,77.167 27.187,77.167 27.002 C 77.167 26.818,77.242 26.667,77.333 26.667 C 77.425 26.667,77.500 26.479,77.500 26.250 C 77.500 25.995,77.595 25.833,77.745 25.833 C 77.894 25.833,77.952 25.736,77.893 25.582 C 77.840 25.444,77.917 25.146,78.065 24.921 C 78.213 24.696,78.336 24.415,78.339 24.298 C 78.342 24.180,78.485 23.915,78.657 23.708 L 78.970 23.333 85.615 23.333 C 92.892 23.333,92.833 23.325,92.833 24.335 C 92.833 24.518,92.908 24.667,93.000 24.667 C 93.092 24.667,93.167 24.854,93.167 25.083 C 93.167 25.313,93.242 25.500,93.333 25.500 C 93.425 25.500,93.500 25.690,93.500 25.922 C 93.500 26.154,93.612 26.387,93.750 26.440 C 93.888 26.492,94.000 26.715,94.000 26.934 C 94.000 27.154,94.075 27.333,94.167 27.333 C 94.258 27.333,94.333 27.558,94.333 27.833 C 94.333 28.108,94.408 28.333,94.500 28.333 C 94.592 28.333,94.669 28.502,94.672 28.708 C 94.684 29.577,94.938 29.667,97.393 29.667 C 99.303 29.667,99.667 29.627,99.667 29.417 C 99.667 29.279,99.592 29.167,99.500 29.167 C 99.408 29.167,99.333 29.016,99.333 28.831 C 99.333 28.507,99.274 28.346,98.859 27.544 C 98.753 27.339,98.667 27.025,98.667 26.845 C 98.667 26.666,98.592 26.473,98.500 26.417 C 98.408 26.360,98.333 26.166,98.333 25.985 C 98.333 25.804,98.221 25.613,98.083 25.560 C 97.941 25.506,97.833 25.257,97.833 24.982 C 97.833 24.717,97.758 24.500,97.667 24.500 C 97.575 24.500,97.500 24.350,97.500 24.167 C 97.500 23.983,97.425 23.833,97.333 23.833 C 97.242 23.833,97.167 23.650,97.167 23.427 C 97.167 23.203,97.092 22.973,97.000 22.917 C 96.908 22.860,96.833 22.631,96.833 22.407 C 96.833 22.183,96.758 22.000,96.667 22.000 C 96.575 22.000,96.500 21.854,96.500 21.677 C 96.500 21.499,96.431 21.310,96.346 21.258 C 96.262 21.206,96.143 20.939,96.083 20.665 C 96.023 20.391,95.904 20.167,95.820 20.167 C 95.736 20.167,95.667 19.979,95.667 19.750 C 95.667 19.521,95.592 19.333,95.500 19.333 C 95.408 19.333,95.333 19.150,95.333 18.927 C 95.333 18.703,95.258 18.473,95.167 18.417 C 95.075 18.360,95.000 18.168,95.000 17.990 C 95.000 17.812,94.925 17.667,94.833 17.667 C 94.742 17.667,94.667 17.479,94.667 17.250 C 94.667 17.021,94.592 16.833,94.500 16.833 C 94.408 16.833,94.333 16.608,94.333 16.333 C 94.333 16.000,94.250 15.833,94.083 15.833 C 93.928 15.833,93.833 15.676,93.833 15.417 C 93.833 15.188,93.758 15.000,93.667 15.000 C 93.575 15.000,93.500 14.817,93.500 14.593 C 93.500 14.369,93.425 14.140,93.333 14.083 C 93.242 14.027,93.167 13.835,93.167 13.657 C 93.167 13.479,93.092 13.333,93.000 13.333 C 92.908 13.333,92.833 13.108,92.833 12.833 C 92.833 12.558,92.758 12.333,92.667 12.333 C 92.575 12.333,92.500 12.146,92.500 11.917 C 92.500 11.688,92.425 11.500,92.333 11.500 C 92.242 11.500,92.167 11.355,92.167 11.179 C 92.167 11.002,92.054 10.745,91.917 10.607 C 91.779 10.470,91.667 10.206,91.667 10.022 C 91.667 9.837,91.592 9.640,91.500 9.583 C 91.408 9.527,91.333 9.302,91.333 9.083 C 91.333 8.865,91.258 8.640,91.167 8.583 C 91.075 8.527,91.000 8.335,91.000 8.157 C 91.000 7.979,90.925 7.833,90.833 7.833 C 90.742 7.833,90.667 7.608,90.667 7.333 C 90.667 7.058,90.592 6.833,90.500 6.833 C 90.408 6.833,90.333 6.681,90.333 6.495 C 90.333 6.309,90.219 6.112,90.078 6.058 C 89.924 5.999,89.860 5.844,89.917 5.664 C 89.969 5.502,89.896 5.253,89.756 5.113 C 89.615 4.972,89.500 4.744,89.500 4.605 C 89.500 4.466,89.425 4.307,89.333 4.250 C 89.242 4.193,89.167 3.968,89.167 3.750 C 89.167 3.532,89.092 3.307,89.000 3.250 C 88.908 3.193,88.833 3.001,88.833 2.823 C 88.833 2.646,88.758 2.500,88.667 2.500 C 88.575 2.500,88.500 2.359,88.500 2.187 C 88.500 1.742,88.027 0.667,87.831 0.667 C 87.741 0.667,87.667 0.517,87.667 0.333 C 87.667 -0.044,84.233 -0.174,83.625 0.180 M121.583 0.111 C 121.125 0.153,120.679 0.257,120.592 0.343 C 120.505 0.429,120.231 0.500,119.984 0.500 C 119.736 0.500,119.492 0.613,119.438 0.754 C 119.374 0.922,119.196 0.982,118.912 0.930 C 118.655 0.884,118.450 0.938,118.401 1.064 C 118.356 1.181,118.060 1.378,117.743 1.503 C 117.426 1.627,117.167 1.790,117.167 1.864 C 117.167 1.939,117.051 2.000,116.909 2.000 C 116.767 2.000,116.464 2.188,116.235 2.417 C 116.006 2.646,115.744 2.833,115.652 2.833 C 115.561 2.833,115.193 3.133,114.833 3.500 C 114.474 3.867,114.102 4.167,114.007 4.167 C 113.911 4.167,113.833 4.223,113.833 4.292 C 113.833 4.360,113.646 4.635,113.416 4.901 C 113.187 5.167,113.000 5.445,113.000 5.518 C 113.000 5.592,112.813 5.839,112.583 6.068 C 112.354 6.297,112.167 6.630,112.167 6.808 C 112.167 6.986,112.046 7.177,111.899 7.234 C 111.747 7.292,111.673 7.443,111.727 7.585 C 111.785 7.736,111.727 7.833,111.578 7.833 C 111.443 7.833,111.333 7.947,111.333 8.086 C 111.333 8.330,111.264 8.507,110.859 9.289 C 110.753 9.494,110.667 9.851,110.667 10.081 C 110.667 10.311,110.592 10.500,110.500 10.500 C 110.408 10.500,110.333 10.880,110.333 11.345 C 110.333 11.889,110.241 12.283,110.073 12.451 C 109.717 12.807,109.754 17.854,110.111 17.716 C 110.276 17.653,110.333 17.826,110.333 18.389 C 110.333 18.806,110.408 19.193,110.500 19.250 C 110.592 19.307,110.667 19.574,110.667 19.843 C 110.667 20.113,110.742 20.333,110.833 20.333 C 110.925 20.333,111.000 20.469,111.000 20.635 C 111.000 21.051,111.796 22.667,112.000 22.667 C 112.092 22.667,112.167 22.800,112.167 22.963 C 112.167 23.126,112.317 23.368,112.500 23.500 C 112.683 23.632,112.833 23.849,112.833 23.981 C 112.833 24.113,113.321 24.693,113.917 25.268 C 114.513 25.844,115.000 26.407,115.000 26.519 C 115.000 26.631,115.042 26.680,115.094 26.629 C 115.145 26.577,115.381 26.715,115.618 26.934 C 115.855 27.154,116.116 27.333,116.198 27.333 C 116.280 27.333,116.508 27.483,116.705 27.667 C 116.902 27.850,117.199 28.000,117.365 28.000 C 117.531 28.000,117.667 28.075,117.667 28.167 C 117.667 28.258,117.810 28.333,117.986 28.333 C 118.162 28.333,118.331 28.390,118.361 28.458 C 118.456 28.671,119.451 29.167,119.784 29.167 C 119.958 29.167,120.194 29.260,120.308 29.375 C 120.606 29.673,127.560 29.673,127.858 29.375 C 127.973 29.260,128.269 29.167,128.516 29.167 C 128.762 29.167,129.007 29.055,129.059 28.919 C 129.113 28.780,129.265 28.715,129.409 28.770 C 129.558 28.827,129.706 28.757,129.766 28.601 C 129.823 28.454,130.011 28.333,130.184 28.333 C 130.358 28.333,130.500 28.258,130.500 28.167 C 130.500 28.075,130.671 28.000,130.880 28.000 C 131.089 28.000,131.368 27.850,131.500 27.667 C 131.632 27.483,131.838 27.333,131.957 27.333 C 132.076 27.333,132.576 26.925,133.068 26.425 C 133.559 25.926,134.008 25.563,134.064 25.620 C 134.121 25.676,134.167 25.638,134.167 25.534 C 134.167 25.431,134.504 24.999,134.917 24.574 C 135.329 24.150,135.667 23.697,135.667 23.568 C 135.667 23.439,135.723 23.333,135.792 23.332 C 135.941 23.330,136.333 22.523,136.333 22.217 C 136.333 22.098,136.258 22.000,136.167 22.000 C 136.075 22.000,136.000 21.887,136.000 21.750 C 136.000 21.611,135.852 21.500,135.667 21.500 C 135.483 21.500,135.333 21.425,135.333 21.333 C 135.333 21.242,135.180 21.167,134.993 21.167 C 134.806 21.167,134.492 21.017,134.295 20.833 C 133.916 20.480,132.500 20.348,132.500 20.667 C 132.500 20.758,132.390 20.833,132.255 20.833 C 132.114 20.833,132.048 20.932,132.100 21.066 C 132.188 21.297,129.998 23.667,129.697 23.667 C 129.615 23.667,129.346 23.854,129.099 24.083 C 128.852 24.313,128.541 24.500,128.408 24.500 C 128.275 24.500,128.167 24.575,128.167 24.667 C 128.167 24.758,128.017 24.833,127.833 24.833 C 127.650 24.833,127.500 24.908,127.500 25.000 C 127.500 25.092,127.279 25.167,127.010 25.167 C 126.740 25.167,126.473 25.242,126.417 25.333 C 126.356 25.431,125.387 25.500,124.073 25.500 C 122.691 25.500,121.833 25.436,121.833 25.333 C 121.833 25.242,121.613 25.167,121.343 25.167 C 121.074 25.167,120.807 25.092,120.750 25.000 C 120.693 24.908,120.501 24.833,120.323 24.833 C 120.146 24.833,120.000 24.758,120.000 24.667 C 120.000 24.575,119.891 24.500,119.759 24.500 C 119.626 24.500,119.315 24.313,119.068 24.083 C 118.820 23.854,118.550 23.667,118.466 23.667 C 118.383 23.667,117.888 23.220,117.366 22.674 C 116.153 21.406,116.000 21.219,116.000 21.007 C 116.000 20.911,115.939 20.833,115.864 20.833 C 115.790 20.833,115.626 20.571,115.500 20.250 C 115.374 19.929,115.210 19.667,115.136 19.667 C 115.061 19.667,115.000 19.479,115.000 19.250 C 115.000 19.021,114.925 18.833,114.833 18.833 C 114.742 18.833,114.667 18.620,114.667 18.359 C 114.667 18.098,114.559 17.667,114.427 17.401 C 114.100 16.741,114.108 12.913,114.438 12.381 C 114.564 12.178,114.667 11.784,114.667 11.506 C 114.667 11.228,114.742 11.000,114.833 11.000 C 114.925 11.000,115.000 10.813,115.000 10.583 C 115.000 10.354,115.075 10.167,115.167 10.167 C 115.258 10.167,115.333 10.017,115.333 9.833 C 115.333 9.650,115.408 9.500,115.500 9.500 C 115.592 9.500,115.667 9.382,115.667 9.238 C 115.667 8.939,116.056 8.500,116.321 8.500 C 116.420 8.500,116.500 8.362,116.500 8.193 C 116.500 7.860,117.853 6.333,118.148 6.333 C 118.329 6.333,118.773 6.012,119.358 5.458 C 119.528 5.298,119.742 5.167,119.833 5.167 C 119.925 5.167,120.000 5.092,120.000 5.000 C 120.000 4.908,120.225 4.833,120.500 4.833 C 120.775 4.833,121.000 4.758,121.000 4.667 C 121.000 4.575,121.263 4.500,121.583 4.500 C 121.904 4.500,122.167 4.425,122.167 4.333 C 122.167 4.232,122.913 4.167,124.073 4.167 C 125.165 4.167,126.024 4.238,126.083 4.333 C 126.140 4.425,126.407 4.500,126.677 4.500 C 126.946 4.500,127.167 4.575,127.167 4.667 C 127.167 4.758,127.392 4.833,127.667 4.833 C 127.942 4.833,128.167 4.908,128.167 5.000 C 128.167 5.092,128.287 5.167,128.434 5.167 C 128.582 5.167,128.850 5.354,129.030 5.583 C 129.210 5.813,129.458 6.000,129.581 6.000 C 129.925 6.000,131.811 7.935,131.930 8.411 C 131.988 8.643,132.132 8.833,132.249 8.833 C 132.366 8.833,132.500 8.983,132.548 9.167 C 132.639 9.513,133.500 9.664,133.500 9.333 C 133.500 9.242,133.633 9.167,133.797 9.167 C 133.960 9.167,134.201 9.017,134.333 8.833 C 134.465 8.650,134.745 8.500,134.953 8.500 C 135.162 8.500,135.333 8.425,135.333 8.333 C 135.333 8.242,135.483 8.167,135.667 8.167 C 135.850 8.167,136.000 8.081,136.000 7.977 C 136.000 7.872,136.131 7.690,136.292 7.572 C 136.569 7.367,136.569 7.352,136.292 7.244 C 136.131 7.182,136.000 6.968,136.000 6.769 C 136.000 6.570,135.850 6.299,135.667 6.167 C 135.483 6.035,135.333 5.819,135.333 5.687 C 135.333 5.416,132.571 2.667,132.299 2.667 C 132.202 2.667,132.001 2.530,131.853 2.362 C 131.705 2.195,131.340 1.952,131.042 1.822 C 130.744 1.692,130.500 1.529,130.500 1.459 C 130.500 1.390,130.358 1.333,130.184 1.333 C 130.011 1.333,129.823 1.213,129.766 1.066 C 129.693 0.874,129.544 0.828,129.245 0.903 C 128.952 0.977,128.797 0.932,128.729 0.754 C 128.675 0.613,128.431 0.500,128.182 0.500 C 127.935 0.500,127.656 0.423,127.561 0.328 C 127.377 0.144,122.985 -0.016,121.583 0.111 M149.500 14.833 L 149.500 29.667 151.667 29.667 L 153.833 29.667 153.833 25.486 L 153.833 21.306 154.417 20.739 C 154.737 20.427,155.000 20.105,155.000 20.023 C 155.000 19.941,155.300 19.564,155.667 19.187 C 156.033 18.809,156.333 18.466,156.333 18.424 C 156.333 18.382,156.521 18.161,156.750 17.932 C 157.033 17.649,157.167 17.592,157.167 17.757 C 157.167 17.889,157.485 18.322,157.875 18.719 C 158.265 19.115,158.682 19.626,158.802 19.854 C 158.923 20.082,159.233 20.494,159.491 20.770 C 159.749 21.046,160.081 21.506,160.228 21.791 C 160.376 22.076,160.647 22.358,160.832 22.416 C 161.016 22.475,161.167 22.592,161.167 22.676 C 161.167 22.852,161.545 23.349,162.208 24.045 C 162.460 24.309,162.667 24.595,162.667 24.679 C 162.667 24.764,162.742 24.833,162.833 24.833 C 162.925 24.833,163.000 24.946,163.000 25.083 C 163.000 25.221,163.075 25.333,163.167 25.333 C 163.258 25.333,163.333 25.412,163.333 25.508 C 163.333 25.744,164.104 26.500,164.345 26.500 C 164.457 26.500,164.502 26.641,164.452 26.833 C 164.395 27.050,164.447 27.167,164.599 27.167 C 164.728 27.167,164.833 27.244,164.833 27.339 C 164.833 27.434,165.095 27.772,165.414 28.092 C 165.733 28.411,166.111 28.898,166.253 29.173 L 166.513 29.675 169.298 29.629 C 172.511 29.576,172.597 29.514,171.233 28.226 C 170.830 27.845,170.500 27.462,170.500 27.375 C 170.500 27.287,170.294 26.997,170.042 26.729 C 169.790 26.462,169.362 25.944,169.090 25.580 C 168.819 25.215,168.388 24.718,168.132 24.475 C 167.876 24.232,167.667 23.985,167.667 23.926 C 167.667 23.777,167.363 23.410,166.561 22.589 C 166.182 22.200,165.822 21.728,165.762 21.539 C 165.702 21.350,165.356 20.935,164.993 20.617 C 164.630 20.298,164.333 19.954,164.333 19.852 C 164.333 19.750,164.258 19.667,164.167 19.667 C 164.075 19.667,164.000 19.569,164.000 19.449 C 164.000 19.175,162.935 18.000,162.686 18.000 C 162.584 18.000,162.500 17.862,162.500 17.693 C 162.500 17.524,162.162 17.029,161.750 16.592 C 161.337 16.156,161.000 15.742,161.000 15.674 C 161.000 15.605,160.775 15.314,160.500 15.026 C 159.864 14.360,159.871 14.084,160.542 13.477 C 160.840 13.208,161.235 12.849,161.420 12.680 C 161.604 12.511,161.866 12.158,162.000 11.895 C 162.134 11.632,162.425 11.267,162.647 11.083 C 163.498 10.379,164.333 9.429,164.333 9.165 C 164.333 9.074,164.427 9.019,164.542 9.042 C 164.656 9.065,164.733 8.994,164.712 8.886 C 164.691 8.777,165.085 8.274,165.587 7.768 C 166.089 7.262,166.500 6.805,166.500 6.753 C 166.500 6.651,167.268 5.769,168.087 4.932 C 168.363 4.648,168.813 4.117,169.087 3.751 C 169.360 3.385,170.052 2.617,170.625 2.045 C 171.198 1.473,171.667 0.891,171.667 0.752 C 171.667 0.614,171.742 0.500,171.833 0.500 C 171.925 0.500,172.000 0.388,172.000 0.250 C 172.000 -0.124,166.537 -0.124,166.394 0.250 C 166.341 0.387,166.207 0.500,166.096 0.500 C 165.985 0.500,165.725 0.802,165.517 1.172 C 165.309 1.542,164.658 2.330,164.070 2.924 C 163.481 3.518,163.000 4.116,163.000 4.252 C 163.000 4.389,162.925 4.500,162.833 4.500 C 162.742 4.500,162.667 4.580,162.667 4.679 C 162.667 4.877,162.255 5.333,162.076 5.333 C 161.875 5.333,160.833 6.556,160.833 6.792 C 160.833 6.917,160.758 6.973,160.667 6.917 C 160.575 6.860,160.500 6.968,160.500 7.157 C 160.500 7.346,160.422 7.500,160.326 7.500 C 160.111 7.500,159.617 7.996,158.749 9.083 C 158.383 9.542,157.680 10.310,157.186 10.792 C 156.692 11.273,156.339 11.667,156.401 11.667 C 156.519 11.667,156.325 11.924,155.708 12.584 C 155.502 12.804,155.333 13.034,155.333 13.095 C 155.333 13.156,155.015 13.497,154.625 13.853 L 153.917 14.500 153.873 7.486 C 153.822 -0.806,154.085 0.000,151.429 0.000 L 149.500 0.000 149.500 14.833 M184.667 14.833 L 184.667 29.667 192.820 29.667 L 200.974 29.667 201.086 29.153 C 201.246 28.425,201.120 25.774,200.918 25.628 C 200.826 25.560,198.125 25.504,194.917 25.503 L 189.083 25.500 189.133 21.375 C 189.161 19.106,189.245 17.189,189.320 17.114 C 189.430 17.003,196.471 16.956,198.000 17.056 L 198.417 17.083 198.463 14.958 L 198.510 12.833 193.797 12.833 L 189.083 12.833 189.083 8.502 L 189.083 4.171 195.061 4.127 L 201.039 4.083 201.117 2.917 C 201.160 2.275,201.145 1.356,201.085 0.875 L 200.976 0.000 192.821 0.000 L 184.667 0.000 184.667 14.833 M214.500 14.833 L 214.500 29.667 223.083 29.667 L 231.667 29.667 231.667 27.906 C 231.667 25.237,232.387 25.500,225.077 25.500 L 218.833 25.500 218.833 12.750 L 218.833 0.000 216.667 0.000 L 214.500 0.000 214.500 14.833 M243.667 14.833 L 243.667 29.667 245.835 29.667 L 248.003 29.667 247.998 14.833 L 247.993 0.000 245.830 0.000 L 243.667 0.000 243.667 14.833 M86.000 7.268 C 86.000 7.487,86.075 7.667,86.167 7.667 C 86.258 7.667,86.333 7.892,86.333 8.167 C 86.333 8.442,86.408 8.667,86.500 8.667 C 86.592 8.667,86.667 8.854,86.667 9.083 C 86.667 9.313,86.742 9.500,86.833 9.500 C 86.925 9.500,87.000 9.725,87.000 10.000 C 87.000 10.275,87.075 10.500,87.167 10.500 C 87.258 10.500,87.333 10.688,87.333 10.917 C 87.333 11.188,87.427 11.333,87.601 11.333 C 87.805 11.333,87.844 11.435,87.764 11.754 C 87.690 12.048,87.734 12.203,87.913 12.271 C 88.052 12.325,88.167 12.548,88.167 12.768 C 88.167 12.987,88.242 13.167,88.333 13.167 C 88.425 13.167,88.500 13.392,88.500 13.667 C 88.500 13.942,88.575 14.167,88.667 14.167 C 88.758 14.167,88.833 14.354,88.833 14.583 C 88.833 14.813,88.908 15.000,89.000 15.000 C 89.092 15.000,89.167 15.183,89.167 15.407 C 89.167 15.631,89.242 15.860,89.333 15.917 C 89.425 15.973,89.500 16.168,89.500 16.348 C 89.500 16.529,89.612 16.720,89.750 16.773 C 89.893 16.828,90.000 17.076,90.000 17.351 C 90.000 17.616,90.075 17.833,90.167 17.833 C 90.258 17.833,90.333 17.979,90.333 18.157 C 90.333 18.335,90.408 18.527,90.500 18.583 C 90.592 18.640,90.667 18.832,90.667 19.010 C 90.667 19.323,90.504 19.333,85.583 19.333 C 80.611 19.333,80.500 19.326,80.500 19.000 C 80.500 18.817,80.575 18.667,80.667 18.667 C 80.758 18.667,80.833 18.479,80.833 18.250 C 80.833 18.021,80.908 17.833,81.000 17.833 C 81.092 17.833,81.167 17.608,81.167 17.333 C 81.167 17.058,81.242 16.833,81.333 16.833 C 81.425 16.833,81.500 16.646,81.500 16.417 C 81.500 16.188,81.570 16.000,81.654 16.000 C 81.852 16.000,82.333 15.043,82.333 14.651 C 82.333 14.487,82.408 14.307,82.500 14.250 C 82.592 14.193,82.667 14.001,82.667 13.823 C 82.667 13.646,82.742 13.500,82.833 13.500 C 82.925 13.500,83.000 13.275,83.000 13.000 C 83.000 12.725,83.075 12.500,83.167 12.500 C 83.258 12.500,83.333 12.313,83.333 12.083 C 83.333 11.854,83.408 11.667,83.500 11.667 C 83.592 11.667,83.667 11.450,83.667 11.184 C 83.667 10.900,83.774 10.661,83.928 10.602 C 84.095 10.538,84.154 10.388,84.090 10.187 C 84.027 9.988,84.084 9.837,84.245 9.775 C 84.385 9.721,84.500 9.487,84.500 9.255 C 84.500 9.023,84.575 8.833,84.667 8.833 C 84.758 8.833,84.833 8.646,84.833 8.417 C 84.833 8.188,84.908 8.000,85.000 8.000 C 85.092 8.000,85.167 7.809,85.167 7.576 C 85.167 7.082,85.490 6.673,85.791 6.789 C 85.906 6.833,86.000 7.048,86.000 7.268 " stroke="none" fill="#8c949c" fill-rule="evenodd"></path></g></svg>